<svg width="438" height="121" viewBox="0 0 438 121" fill="none" xmlns="http://www.w3.org/2000/svg">
<g clip-path="url(#clip0_722_455)">
<path d="M219.001 114.002C339.952 114.002 438.002 110.663 438.002 106.544C438.002 102.425 339.952 99.0854 219.001 99.0854C98.05 99.0854 0 102.425 0 106.544C0 110.663 98.05 114.002 219.001 114.002Z" fill="#77AAE9"/>
<mask id="mask0_722_455" style="mask-type:luminance" maskUnits="userSpaceOnUse" x="0" y="99" width="439" height="16">
<path d="M219.001 114.002C339.952 114.002 438.002 110.663 438.002 106.544C438.002 102.425 339.952 99.0854 219.001 99.0854C98.05 99.0854 0 102.425 0 106.544C0 110.663 98.05 114.002 219.001 114.002Z" fill="white"/>
</mask>
<g mask="url(#mask0_722_455)">
<path d="M224.869 110.565C337.365 110.565 428.561 106.682 428.561 101.892C428.561 97.1012 337.365 93.2178 224.869 93.2178C112.373 93.2178 21.1768 97.1012 21.1768 101.892C21.1768 106.682 112.373 110.565 224.869 110.565Z" fill="#4992CE"/>
</g>
<path d="M146.264 87.5395C146.264 87.5395 147.722 69.8828 131.011 66.8177C114.299 63.7526 71.1359 34.749 54.3446 38.8985C47.2752 40.6444 53.8158 60.5839 49.5458 71.2488C45.948 80.2282 27.5341 97.3928 40.8952 100.997H148.263L146.264 87.5395Z" fill="#BCDEF9"/>
<mask id="mask1_722_455" style="mask-type:luminance" maskUnits="userSpaceOnUse" x="36" y="38" width="113" height="63">
<path d="M146.264 87.5395C146.264 87.5395 147.722 69.8828 131.011 66.8177C114.299 63.7526 71.1359 34.749 54.3446 38.8985C47.2752 40.6444 53.8158 60.5839 49.5458 71.2488C45.948 80.2282 27.5341 97.3928 40.8952 100.997H148.263L146.264 87.5395Z" fill="white"/>
</mask>
<g mask="url(#mask1_722_455)">
<path opacity="0.42" d="M78.5732 43.8442C78.5732 43.8442 66.1071 80.2197 77.7524 92.6441C89.3976 105.069 112.762 109.93 112.762 109.93H148.263V50.009L78.5732 43.8529" fill="#77AAE9"/>
</g>
<path d="M137.522 59.2423C137.522 59.2423 163.511 56.6141 175.065 52.3816C186.618 48.1492 169.288 100.841 169.288 100.841H126.666L137.522 59.2423Z" fill="#89503D"/>
<path d="M140.65 68.9798C140.65 84.3485 125.229 91.0952 107.861 91.0952C90.492 91.0952 77.7529 84.345 77.7529 68.9798C77.7529 53.6146 93.3917 34.7405 110.758 34.7405C128.125 34.7405 140.65 53.6163 140.65 68.9798Z" fill="#9E5C46"/>
<mask id="mask2_722_455" style="mask-type:luminance" maskUnits="userSpaceOnUse" x="77" y="34" width="64" height="58">
<path d="M140.65 68.9798C140.65 84.3485 125.229 91.0952 107.861 91.0952C90.492 91.0952 77.7529 84.345 77.7529 68.9798C77.7529 53.6146 93.3917 34.7405 110.758 34.7405C128.125 34.7405 140.65 53.6163 140.65 68.9798Z" fill="white"/>
</mask>
<g mask="url(#mask2_722_455)">
<path d="M134.142 48.7346C134.142 48.7346 137.389 97.1252 82.3682 82.3575C82.3682 82.3575 87.1254 101.751 112.526 96.0252C137.926 90.2991 145.566 78.3944 145.374 69.9382C145.182 61.482 134.142 48.7346 134.142 48.7346Z" fill="#8A4F3D"/>
</g>
<path d="M115.837 35.3328C110.779 34.0142 105.583 33.3012 100.357 33.2088C98.9607 33.1846 97.5316 33.2088 96.2252 33.7044C96.011 33.7856 95.7794 33.903 95.7068 34.1223C95.5997 34.4798 96.0006 34.7751 96.3531 34.9011C96.9043 35.0965 97.4861 35.1912 98.0708 35.1809L92.5117 35.6989C90.9409 35.8457 89.1991 36.0805 88.1916 37.2979C87.941 37.6036 87.7769 38.1147 88.0948 38.353C88.2409 38.4393 88.4093 38.4802 88.5787 38.4704L92.1886 38.6086C89.5852 39.086 87.1246 40.1489 84.993 41.7169C84.7615 41.8895 84.5178 42.0881 84.4573 42.3713C84.3208 43.0103 85.1485 43.3884 85.7914 43.4903C89.8125 44.1206 93.9131 43.7683 97.9671 43.4126C101.25 43.1259 104.553 42.8376 107.77 42.1019C109.395 41.7307 111.054 41.2195 112.306 40.1282C113.559 39.0368 114.337 37.2375 113.789 35.6644" fill="#9E5C46"/>
<path d="M93.9014 70.4029C93.9014 70.4029 98.2733 73.202 100.596 68.6277C100.596 68.6277 98.2733 71.1575 93.9014 70.4029Z" fill="#231F20"/>
<path d="M119.189 66.8093C119.189 66.8093 122.146 70.6394 126.667 67.5001C126.667 67.4966 123.141 68.7848 119.189 66.8093Z" fill="#231F20"/>
<path d="M117.951 64.435C120.043 62.0641 132.757 64.5386 137.522 65.5661C137.486 58.9195 133.365 52.943 125.31 54.7545C121.561 55.5972 118.127 57.7453 114.45 58.8988C114.07 58.5153 113.634 58.192 113.157 57.9404C112.476 57.5444 111.785 57.1668 111.083 56.8077C110.738 56.635 110.304 56.4623 109.972 56.6626C109.686 56.8353 109.615 57.248 109.718 57.5692C109.846 57.8838 110.042 58.1662 110.292 58.3963C109.169 57.3449 107.954 56.3949 106.663 55.5574C106.499 55.4521 106.297 55.3433 106.119 55.4227C106.031 55.4672 105.961 55.5411 105.922 55.6317C105.72 56.0323 105.908 56.5141 106.143 56.8957C106.555 57.5618 107.107 58.1313 107.759 58.5655C106.705 57.9128 105.608 57.3325 104.475 56.8284C103.598 56.4381 102.673 56.091 101.711 56.0858C101.519 56.0858 101.287 56.1221 101.208 56.2982C101.186 56.3774 101.184 56.4607 101.202 56.5408C101.221 56.6209 101.258 56.6953 101.311 56.7576C101.847 57.5744 102.742 58.0717 103.625 58.4844L103.921 58.6243C104.648 58.9593 105.39 59.2632 106.146 59.536C102.616 59.2494 99.1773 58.5949 95.7437 58.7054C93.2847 58.7831 90.8275 59.2528 88.3408 60.5307C83.485 63.0259 81.2559 67.3274 81.8745 72.1297C85.8663 69.6793 97.3957 63.9204 101.605 66.7248C105.925 69.6068 92.5469 79.9712 88.2164 83.171C100.176 93.3696 123.921 89.2701 133.468 76.8612C122.248 76.3034 115.544 67.1599 117.951 64.435Z" fill="#ECC18F"/>
<path d="M117.43 81.6358C117.848 82.2668 118.007 83.034 117.875 83.7788C117.85 83.9384 117.788 84.0896 117.691 84.2192C117.597 84.315 117.482 84.3887 117.355 84.435C117.228 84.4813 117.093 84.499 116.959 84.4868C116.582 84.4675 116.221 84.3268 115.931 84.086C115.641 83.8451 115.436 83.5168 115.348 83.1502C115.258 82.7427 115.262 82.216 114.878 82.052C114.755 82.0067 114.622 81.9971 114.495 82.0244C113.895 82.1297 113.435 82.6823 112.829 82.7289C112.051 82.7876 111.457 82.0037 110.689 81.8655C110.462 81.8513 110.237 81.8119 110.019 81.7481C109.808 81.6583 109.639 81.4027 109.744 81.2058C109.85 81.009 110.09 81.0004 110.294 80.9952C111.454 80.9689 112.61 80.8447 113.75 80.6239C114.268 80.522 114.787 80.3787 115.305 80.2665C115.466 80.2264 115.635 80.2222 115.798 80.2541C115.961 80.286 116.116 80.3533 116.25 80.4512C116.722 80.7591 117.124 81.1627 117.43 81.6358Z" fill="white"/>
<path d="M113.774 80.332C113.255 80.4166 112.714 80.446 112.187 80.5047L111.392 80.5599C111.265 80.5738 111.133 80.5824 111.004 80.5876C110.634 79.5895 110.546 78.0716 110.551 76.8007C112.699 76.5745 114.325 75.2275 114.211 73.7304C114.095 72.1918 112.189 71.0815 109.953 71.2507C107.717 71.4199 105.999 72.8048 106.115 74.34C106.217 75.6903 107.698 76.7091 109.571 76.8248C109.571 78.0543 109.657 79.5169 109.988 80.6238C109.124 80.6515 108.27 80.6549 107.408 80.6238C106.336 80.5962 105.263 80.5358 104.164 80.4512C105.172 80.9068 106.239 81.2201 107.333 81.3819C108.428 81.5588 109.538 81.6213 110.646 81.5684C111.201 81.5546 111.752 81.4786 112.301 81.4147C112.574 81.3629 112.849 81.3163 113.12 81.261C113.255 81.2317 113.393 81.211 113.527 81.1764L113.929 81.0659C115.001 80.7866 116.028 80.357 116.979 79.7898C115.882 79.9866 114.838 80.2163 113.774 80.332Z" fill="#352F31"/>
<path d="M95.507 62.1866C94.943 62.2421 94.3847 62.3443 93.8377 62.4922C93.2916 62.6424 92.6799 62.9757 92.4017 63.4938C92.0993 64.0584 92.3222 64.5592 93.0048 64.5713C95.7161 64.6214 98.4118 64.2259 101.127 64.3088C101.395 64.3309 101.666 64.3146 101.93 64.2605C103.565 63.8374 101.484 62.7702 100.857 62.6252C99.1704 62.2384 97.2869 62.0053 95.507 62.1866Z" fill="#9E5C46"/>
<path d="M119.639 59.296C119.076 59.3502 118.518 59.4519 117.971 59.5999C117.425 59.7519 116.812 60.0834 116.535 60.6032C116.233 61.1661 116.456 61.6669 117.139 61.679C119.85 61.7291 122.544 61.3336 125.26 61.4182C125.529 61.4404 125.799 61.4241 126.062 61.3699C127.699 60.9451 125.618 59.8779 124.989 59.7346C123.294 59.3478 121.412 59.1181 119.639 59.296Z" fill="#9E5C46"/>
<path d="M104.875 34.7406C104 34.523 103.122 34.3222 102.241 34.138C101.367 33.9467 100.483 33.8014 99.5937 33.7028C99.3725 33.6821 99.1531 33.6665 98.9371 33.6648C98.7321 33.6571 98.527 33.6763 98.3271 33.7218C98.2628 33.7314 98.2027 33.7597 98.1543 33.803C98.1543 33.8133 98.1543 33.803 98.1543 33.8168C98.1543 33.8306 98.1543 33.8168 98.1543 33.8478L98.1681 33.9066C98.219 34.0662 98.3249 34.2027 98.467 34.2917C98.8164 34.5001 99.2089 34.6259 99.6145 34.6595C100.041 34.7123 100.472 34.7256 100.902 34.6992C100.985 34.6925 101.068 34.7194 101.132 34.7738C101.196 34.8282 101.236 34.9057 101.242 34.9893C101.249 35.0729 101.222 35.1557 101.168 35.2195C101.113 35.2833 101.036 35.3228 100.952 35.3295C99.7734 35.4452 98.588 35.5678 97.4147 35.7266C96.2413 35.8855 95.0663 36.0582 93.9189 36.3051C93.3554 36.4184 92.8015 36.5742 92.2617 36.7714C92.1385 36.8216 92.0185 36.8793 91.9022 36.944C91.8131 36.9895 91.731 37.0477 91.6586 37.1167C91.6379 37.1271 91.624 37.2169 91.6258 37.2013C91.6258 37.2013 91.6258 37.2013 91.6258 37.2117C91.6364 37.2193 91.6462 37.228 91.6551 37.2376C91.6725 37.2469 91.6892 37.2573 91.7052 37.2687C91.9342 37.3657 92.1777 37.4241 92.4258 37.4414C92.7077 37.471 92.9909 37.4848 93.2743 37.4828C93.8552 37.4802 94.4356 37.4456 95.0127 37.3792C95.1054 37.3704 95.1981 37.3962 95.2728 37.4516C95.3476 37.507 95.3992 37.5881 95.4177 37.6793C95.4361 37.7705 95.4202 37.8652 95.3728 37.9454C95.3255 38.0255 95.2501 38.0852 95.1613 38.1131C93.9189 38.4775 92.6781 38.8712 91.453 39.296C90.2255 39.6975 89.023 40.1714 87.8517 40.7154C87.5694 40.8501 87.2974 41.0054 87.0378 41.1799C86.9216 41.2576 86.8164 41.3505 86.7251 41.4562C86.6984 41.4873 86.6789 41.5238 86.668 41.5633C86.668 41.5771 86.668 41.584 86.6888 41.6168C86.73 41.6558 86.7773 41.6878 86.8287 41.7118C86.8892 41.7429 86.9704 41.7705 87.0395 41.7999L87.2573 41.8862C87.3316 41.9121 87.4076 41.9311 87.4819 41.9553L87.71 42.0209L87.9416 42.0692L88.1749 42.1159L88.4116 42.1469C89.7018 42.2781 91.0052 42.1775 92.2599 41.8499C91.6425 42.071 91.0063 42.2357 90.3591 42.3421C89.7066 42.4545 89.0434 42.4927 88.3822 42.4561L88.1334 42.4388C88.0505 42.4388 87.9606 42.4163 87.8846 42.406L87.634 42.3697L87.3886 42.3144C87.3057 42.2954 87.2158 42.2782 87.1415 42.2557L86.8996 42.1746C86.8166 42.1452 86.7406 42.1262 86.6542 42.0865C86.5556 42.0449 86.4649 41.9865 86.3864 41.9138C86.3347 41.8642 86.2942 41.8043 86.2674 41.7379C86.2406 41.6715 86.2281 41.6003 86.2308 41.5288C86.2408 41.4041 86.285 41.2845 86.3587 41.1834C86.4708 41.0342 86.6034 40.9017 86.7527 40.7897C87.0262 40.5852 87.315 40.4022 87.6167 40.2423C88.2008 39.9211 88.8021 39.6517 89.407 39.391C90.0118 39.1302 90.6166 38.8902 91.2335 38.6588C92.4639 38.2029 93.6994 37.7798 94.9505 37.3827L95.106 38.1148C94.4993 38.1894 93.889 38.2303 93.2778 38.2374C92.9651 38.2413 92.6524 38.228 92.3412 38.1977C91.9936 38.1726 91.6535 38.0849 91.3372 37.9387L91.1989 37.8524C91.1503 37.8144 91.1036 37.7741 91.059 37.7315C91.0117 37.6783 90.97 37.6205 90.9345 37.5588C90.8978 37.4925 90.8715 37.4208 90.8568 37.3464C90.8413 37.2755 90.8366 37.2028 90.843 37.1305C90.8463 37.066 90.858 37.0022 90.8775 36.9406C90.9101 36.8146 90.969 36.6969 91.0503 36.5952C91.1833 36.4488 91.3413 36.3272 91.5169 36.2361C91.6632 36.1579 91.8145 36.0893 91.9696 36.0305C92.5502 35.8199 93.1465 35.6553 93.753 35.5384C94.9401 35.2932 96.1273 35.1257 97.3196 34.9945C98.512 34.8632 99.6991 34.751 100.898 34.6819L100.94 35.3139C100.468 35.3263 99.9959 35.2951 99.5298 35.2207C99.0347 35.1586 98.5612 34.9811 98.1474 34.7026C97.9164 34.5334 97.7515 34.2892 97.6808 34.0119C97.6621 33.9316 97.654 33.8491 97.6566 33.7667C97.6657 33.6586 97.7093 33.5563 97.781 33.4749C97.8946 33.3562 98.0439 33.2779 98.2061 33.2521C98.4482 33.2075 98.6951 33.1947 98.9405 33.2141C99.1755 33.2297 99.4054 33.2556 99.6317 33.2901C100.528 33.4424 101.414 33.6465 102.286 33.9014C103.162 34.1593 104.024 34.439 104.875 34.7406Z" fill="#ECC18F"/>
<path d="M152.852 100.834C152.852 100.834 157.344 56.892 161.201 52.1381C165.058 47.3842 225.624 37.0233 249.006 34.7473C345.915 25.3172 423.694 98.4341 406.309 100.601C400.733 101.292 369.547 100.841 369.547 100.841L152.852 100.834Z" fill="#BCDEF9"/>
<mask id="mask3_722_455" style="mask-type:luminance" maskUnits="userSpaceOnUse" x="152" y="33" width="257" height="68">
<path d="M152.852 100.834C152.852 100.834 157.344 56.892 161.201 52.1381C165.058 47.3842 225.624 37.0233 249.006 34.7473C345.915 25.3172 423.694 98.4341 406.309 100.601C400.733 101.292 369.547 100.841 369.547 100.841L152.852 100.834Z" fill="white"/>
</mask>
<g mask="url(#mask3_722_455)">
<path d="M206.509 58.8725C207.289 58.862 208.035 58.553 208.593 58.0091C209.112 57.4911 209.489 56.6605 209.457 55.9266C209.423 55.1651 209.172 54.3725 208.593 53.8544C208.32 53.5798 207.996 53.3618 207.638 53.2131C207.28 53.0644 206.897 52.9878 206.509 52.9878C206.122 52.9878 205.738 53.0644 205.381 53.2131C205.023 53.3618 204.698 53.5798 204.425 53.8544C203.907 54.3725 203.53 55.2013 203.561 55.9266C203.596 56.6881 203.846 57.4807 204.425 58.0091C204.985 58.5512 205.73 58.8599 206.509 58.8725Z" fill="white"/>
<path d="M222.111 79.1006C222.891 79.09 223.637 78.781 224.195 78.2371C224.713 77.7191 225.09 76.8885 225.059 76.1546C225.024 75.3948 224.774 74.6005 224.195 74.0824C223.922 73.8078 223.597 73.5898 223.24 73.4411C222.882 73.2924 222.498 73.2158 222.111 73.2158C221.724 73.2158 221.34 73.2924 220.982 73.4411C220.625 73.5898 220.3 73.8078 220.027 74.0824C219.509 74.6005 219.132 75.4311 219.163 76.1546C219.197 76.9161 219.448 77.7087 220.027 78.2371C220.587 78.7792 221.332 79.0879 222.111 79.1006Z" fill="white"/>
<path d="M242.352 46.6519C243.131 46.6418 243.877 46.3327 244.436 45.7885C244.984 45.2335 245.294 44.4862 245.3 43.706C245.265 42.9445 245.016 42.1519 244.436 41.6338C244.163 41.3594 243.838 41.1417 243.481 40.9931C243.123 40.8446 242.74 40.7681 242.352 40.7681C241.965 40.7681 241.582 40.8446 241.224 40.9931C240.867 41.1417 240.542 41.3594 240.269 41.6338C239.751 42.1519 239.372 42.9825 239.405 43.706C239.44 44.4675 239.69 45.2601 240.269 45.7885C240.828 46.3308 241.573 46.6396 242.352 46.6519Z" fill="white"/>
<path d="M230.122 60.9793C230.902 60.9693 231.648 60.6602 232.206 60.1159C232.755 59.5609 233.065 58.8136 233.07 58.0334C233.037 57.2718 232.787 56.4792 232.206 55.9612C231.933 55.6868 231.609 55.4691 231.251 55.3205C230.894 55.1719 230.51 55.0955 230.123 55.0955C229.736 55.0955 229.352 55.1719 228.995 55.3205C228.637 55.4691 228.313 55.6868 228.04 55.9612C227.521 56.4792 227.143 57.3098 227.176 58.0334C227.209 58.7949 227.459 59.5875 228.04 60.1159C228.597 60.6558 229.338 60.9644 230.113 60.9793H230.122Z" fill="white"/>
<path d="M220.424 42.0173C221.204 42.0068 221.95 41.6977 222.508 41.1539C223.027 40.6358 223.404 39.8052 223.372 39.0713C223.338 38.3098 223.087 37.5172 222.508 36.9992C222.235 36.7245 221.911 36.5066 221.553 36.3579C221.195 36.2091 220.812 36.1326 220.424 36.1326C220.037 36.1326 219.653 36.2091 219.296 36.3579C218.938 36.5066 218.613 36.7245 218.34 36.9992C217.822 37.5086 217.445 38.3461 217.476 39.0713C217.511 39.8329 217.76 40.6255 218.34 41.1539C218.9 41.696 219.645 42.0047 220.424 42.0173Z" fill="white"/>
<path d="M175.726 60.1367C176.505 60.1265 177.251 59.8174 177.81 59.2732C178.319 58.7552 178.705 57.9246 178.674 57.1907C178.639 56.4292 178.39 55.6365 177.81 55.1099C177.537 54.8355 177.212 54.6178 176.855 54.4692C176.497 54.3206 176.114 54.2441 175.726 54.2441C175.339 54.2441 174.956 54.3206 174.598 54.4692C174.241 54.6178 173.916 54.8355 173.643 55.1099C173.125 55.6279 172.746 56.4585 172.779 57.1907C172.814 57.9522 173.064 58.7448 173.643 59.2732C174.2 59.8135 174.941 60.1221 175.717 60.1367H175.726Z" fill="white"/>
<path d="M190.488 84.9994C191.268 84.9894 192.014 84.6803 192.572 84.136C193.09 83.618 193.467 82.7891 193.436 82.0552C193.401 81.2937 193.151 80.5011 192.572 79.9727C192.019 79.421 191.269 79.1111 190.488 79.1111C189.706 79.1111 188.957 79.421 188.404 79.9727C187.885 80.4907 187.509 81.3213 187.54 82.0552C187.574 82.8167 187.825 83.6093 188.404 84.136C188.963 84.6787 189.709 84.9875 190.488 84.9994Z" fill="white"/>
<path d="M189.22 66.4586C190 66.4479 190.746 66.1389 191.304 65.5952C191.823 65.0771 192.199 64.2465 192.168 63.523C192.134 62.7615 191.883 61.9688 191.304 61.4404C190.751 60.8887 190.002 60.5789 189.22 60.5789C188.439 60.5789 187.689 60.8887 187.136 61.4404C186.627 61.9585 186.241 62.7891 186.272 63.523C186.307 64.2845 186.557 65.0771 187.136 65.5952C187.695 66.1378 188.441 66.4467 189.22 66.4586Z" fill="white"/>
<path d="M165.183 79.1007C165.962 79.0907 166.709 78.7816 167.267 78.2373C167.815 77.6823 168.126 76.9349 168.131 76.1547C168.098 75.3949 167.847 74.6006 167.267 74.0825C166.994 73.8082 166.669 73.5904 166.312 73.4419C165.954 73.2933 165.571 73.2168 165.184 73.2168C164.796 73.2168 164.413 73.2933 164.055 73.4419C163.698 73.5904 163.373 73.8082 163.1 74.0825C162.582 74.6006 162.204 75.4312 162.236 76.1547C162.271 76.9162 162.521 77.7089 163.1 78.2373C163.657 78.7775 164.398 79.0861 165.174 79.1007H165.183Z" fill="white"/>
<path d="M169.407 95.5329C170.183 95.5204 170.925 95.2115 171.48 94.6695C171.999 94.1514 172.377 93.3208 172.344 92.5869C172.312 91.853 172.059 91.0328 171.48 90.5147C170.928 89.9631 170.178 89.6533 169.397 89.6533C168.616 89.6533 167.867 89.9631 167.314 90.5147C166.796 91.0328 166.419 91.8634 166.45 92.5869C166.483 93.3485 166.733 94.1411 167.314 94.6695C167.874 95.2115 168.619 95.5203 169.398 95.5329H169.407Z" fill="white"/>
<path d="M211.185 94.7317C211.964 94.7215 212.71 94.4125 213.269 93.8683C213.817 93.3133 214.127 92.566 214.133 91.7858C214.1 91.0242 213.849 90.2316 213.269 89.7032C212.716 89.1516 211.967 88.8418 211.185 88.8418C210.404 88.8418 209.655 89.1516 209.102 89.7032C208.584 90.2213 208.205 91.0519 208.238 91.7858C208.273 92.5473 208.523 93.3399 209.102 93.8683C209.659 94.4085 210.4 94.7172 211.176 94.7317H211.185Z" fill="white"/>
<path d="M206.01 74.0443C206.79 74.0347 207.536 73.7255 208.094 73.1809C208.64 72.6287 208.95 71.8855 208.958 71.1088C208.923 70.3472 208.674 69.5546 208.094 69.0262C207.541 68.4746 206.792 68.1648 206.011 68.1648C205.229 68.1648 204.48 68.4746 203.928 69.0262C203.409 69.5443 203.031 70.3749 203.064 71.1088C203.098 71.8703 203.349 72.6629 203.928 73.1809C204.484 73.7217 205.225 74.0305 206.001 74.0443H206.01Z" fill="white"/>
<path d="M254.315 79.7914C255.095 79.7812 255.841 79.4722 256.399 78.928C256.918 78.41 257.295 77.5794 257.263 76.8558C257.231 76.0943 256.98 75.3017 256.399 74.7733C255.847 74.2217 255.097 73.9119 254.316 73.9119C253.535 73.9119 252.786 74.2217 252.233 74.7733C251.715 75.2913 251.336 76.1219 251.369 76.8558C251.404 77.6173 251.654 78.41 252.233 78.928C252.79 79.4681 253.531 79.7767 254.307 79.7914H254.315Z" fill="white"/>
<path d="M265.241 53.9305C266.021 53.9205 266.767 53.6114 267.325 53.0671C267.874 52.5121 268.184 51.7648 268.189 50.9846C268.156 50.223 267.906 49.4304 267.325 48.9124C267.052 48.638 266.728 48.4203 266.37 48.2717C266.013 48.1231 265.629 48.0466 265.242 48.0466C264.855 48.0466 264.472 48.1231 264.114 48.2717C263.757 48.4203 263.432 48.638 263.159 48.9124C262.641 49.4218 262.262 50.2593 262.295 50.9846C262.33 51.7461 262.58 52.5387 263.159 53.0671C263.716 53.6073 264.457 53.916 265.233 53.9305H265.241Z" fill="white"/>
<path d="M244.54 63.1258C245.319 63.1158 246.066 62.8067 246.624 62.2624C247.142 61.7443 247.519 60.9137 247.488 60.1902C247.453 59.4287 247.203 58.6361 246.624 58.1077C246.071 57.556 245.321 57.2461 244.54 57.2461C243.758 57.2461 243.009 57.556 242.456 58.1077C241.937 58.6257 241.561 59.4563 241.592 60.1902C241.626 60.9517 241.877 61.7443 242.456 62.2624C243.015 62.805 243.76 63.1139 244.54 63.1258Z" fill="white"/>
<path d="M241.089 95.3068C241.869 95.2972 242.615 94.988 243.173 94.4434C243.72 93.8914 244.03 93.148 244.037 92.3712C244.004 91.6097 243.754 90.8171 243.173 90.2887C242.62 89.7371 241.871 89.4272 241.09 89.4272C240.309 89.4272 239.559 89.7371 239.007 90.2887C238.488 90.8067 238.11 91.6373 238.143 92.3712C238.177 93.1327 238.428 93.9253 239.007 94.4434C239.563 94.9842 240.304 95.2929 241.08 95.3068H241.089Z" fill="white"/>
<path d="M283.645 102.777C284.425 102.767 285.17 102.458 285.728 101.914C286.246 101.395 286.624 100.565 286.592 99.831C286.557 99.0695 286.306 98.2769 285.728 97.7588C285.455 97.4844 285.13 97.2667 284.772 97.1181C284.415 96.9696 284.032 96.8931 283.644 96.8931C283.257 96.8931 282.874 96.9696 282.516 97.1181C282.159 97.2667 281.834 97.4844 281.561 97.7588C281.014 98.3108 280.704 99.0542 280.697 99.831C280.73 100.593 280.981 101.385 281.561 101.914C282.121 102.456 282.866 102.764 283.645 102.777Z" fill="white"/>
<path d="M293.42 71.746C294.2 71.7353 294.946 71.4263 295.504 70.8826C296.023 70.3646 296.4 69.5339 296.369 68.8018C296.334 68.0402 296.083 67.2476 295.504 66.7192C294.951 66.1675 294.202 65.8577 293.42 65.8577C292.639 65.8577 291.89 66.1675 291.336 66.7192C290.827 67.2373 290.441 68.0679 290.472 68.8018C290.507 69.5616 290.758 70.3559 291.336 70.8826C291.896 71.4245 292.641 71.7332 293.42 71.746Z" fill="white"/>
<path d="M268.692 89.5598C269.472 89.5497 270.218 89.2406 270.776 88.6964C271.295 88.1784 271.672 87.3478 271.64 86.6139C271.606 85.8524 271.357 85.0598 270.776 84.5313C270.224 83.9797 269.474 83.6699 268.693 83.6699C267.912 83.6699 267.163 83.9797 266.61 84.5313C266.092 85.0494 265.713 85.88 265.746 86.6139C265.781 87.3754 266.031 88.168 266.61 88.6964C267.167 89.2367 267.908 89.5453 268.684 89.5598H268.692Z" fill="white"/>
<path d="M273.292 70.596C274.072 70.586 274.818 70.2769 275.376 69.7326C275.925 69.1776 276.235 68.4302 276.24 67.65C276.207 66.8885 275.957 66.0959 275.376 65.5675C274.823 65.0159 274.074 64.7061 273.293 64.7061C272.512 64.7061 271.762 65.0159 271.21 65.5675C270.691 66.0855 270.313 66.9161 270.346 67.65C270.38 68.4115 270.631 69.2042 271.21 69.7326C271.766 70.2728 272.508 70.5814 273.283 70.596H273.292Z" fill="white"/>
<path d="M292.27 38.415C293.05 38.4058 293.796 38.0965 294.354 37.5516C294.903 36.9975 295.213 36.2506 295.218 35.4708C295.185 34.7093 294.934 33.9167 294.354 33.3883C293.801 32.8367 293.052 32.5269 292.27 32.5269C291.489 32.5269 290.74 32.8367 290.187 33.3883C289.669 33.9063 289.29 34.7369 289.323 35.4708C289.358 36.2323 289.608 37.025 290.187 37.5516C290.743 38.0925 291.485 38.4012 292.261 38.415H292.27Z" fill="white"/>
<path d="M265.816 41.2834C266.596 41.2737 267.343 40.9645 267.9 40.4199C268.419 39.9019 268.796 39.0713 268.764 38.3478C268.73 37.5862 268.481 36.7936 267.9 36.2652C267.348 35.7136 266.598 35.4038 265.817 35.4038C265.036 35.4038 264.287 35.7136 263.734 36.2652C263.216 36.7833 262.837 37.6139 262.87 38.3478C262.905 39.1093 263.155 39.9019 263.734 40.4199C264.293 40.9628 265.038 41.2717 265.816 41.2834Z" fill="white"/>
<path d="M333.675 74.6107C334.455 74.6006 335.201 74.2915 335.759 73.7473C336.308 73.1924 336.618 72.445 336.623 71.6648C336.588 70.905 336.339 70.1107 335.759 69.5926C335.206 69.041 334.457 68.7312 333.676 68.7312C332.895 68.7312 332.145 69.041 331.593 69.5926C331.074 70.1107 330.696 70.9413 330.729 71.6648C330.763 72.4263 331.014 73.2189 331.593 73.7473C332.151 74.2896 332.896 74.5984 333.675 74.6107Z" fill="white"/>
<path d="M321.024 52.7821C321.8 52.7695 322.542 52.4606 323.098 51.9187C323.616 51.4007 323.994 50.5701 323.962 49.8465C323.927 49.085 323.676 48.2924 323.098 47.764C322.545 47.2124 321.796 46.9026 321.014 46.9026C320.233 46.9026 319.484 47.2124 318.931 47.764C318.413 48.2821 318.036 49.1126 318.067 49.8465C318.102 50.6063 318.351 51.4007 318.931 51.9187C319.491 52.4606 320.236 52.7693 321.015 52.7821H321.024Z" fill="white"/>
<path d="M292.27 54.5056C293.049 54.4956 293.795 54.1865 294.354 53.6422C294.902 53.0872 295.212 52.3399 295.218 51.5597C295.185 50.7982 294.934 50.0056 294.354 49.4772C293.801 48.9255 293.052 48.6157 292.27 48.6157C291.489 48.6157 290.74 48.9255 290.187 49.4772C289.669 49.9952 289.29 50.8258 289.323 51.5597C289.358 52.3212 289.608 53.1138 290.187 53.6422C290.744 54.1825 291.485 54.4911 292.261 54.5056H292.27Z" fill="white"/>
<path d="M312.398 65.9992C313.178 65.9885 313.924 65.6795 314.482 65.1358C314.992 64.6177 315.377 63.7871 315.346 63.0549C315.312 62.2934 315.061 61.5008 314.482 60.9724C313.929 60.4207 313.18 60.1108 312.398 60.1108C311.617 60.1108 310.867 60.4207 310.314 60.9724C309.796 61.4905 309.419 62.321 309.45 63.0549C309.485 63.8165 309.735 64.6091 310.314 65.1358C310.874 65.6777 311.619 65.9864 312.398 65.9992Z" fill="white"/>
<path d="M315.273 91.2834C316.053 91.2729 316.799 90.9639 317.357 90.42C317.875 89.902 318.252 89.0714 318.221 88.3375C318.187 87.5759 317.936 86.7833 317.357 86.2653C317.084 85.9906 316.759 85.7727 316.402 85.624C316.044 85.4752 315.66 85.3987 315.273 85.3987C314.886 85.3987 314.502 85.4752 314.144 85.624C313.787 85.7727 313.462 85.9906 313.189 86.2653C312.671 86.7833 312.294 87.6139 312.325 88.3375C312.36 89.099 312.61 89.8916 313.189 90.42C313.749 90.9621 314.494 91.2708 315.273 91.2834Z" fill="white"/>
<path d="M296.296 90.1349C297.075 90.1249 297.821 89.8158 298.38 89.2715C298.898 88.7535 299.275 87.9229 299.244 87.1907C299.209 86.4292 298.958 85.6366 298.38 85.1082C297.826 84.5564 297.077 84.2466 296.296 84.2466C295.514 84.2466 294.765 84.5564 294.212 85.1082C293.693 85.6262 293.316 86.4568 293.347 87.1907C293.382 87.9522 293.633 88.7448 294.212 89.2715C294.771 89.8142 295.516 90.123 296.296 90.1349Z" fill="white"/>
<path d="M339.426 97.6052C340.206 97.5946 340.952 97.2856 341.51 96.7417C342.029 96.2237 342.405 95.3931 342.374 94.6592C342.34 93.8977 342.089 93.1051 341.51 92.5767C340.957 92.025 340.208 91.7151 339.426 91.7151C338.645 91.7151 337.895 92.025 337.342 92.5767C336.833 93.0947 336.447 93.9253 336.478 94.6592C336.513 95.4207 336.763 96.2133 337.342 96.7417C337.902 97.2838 338.647 97.5925 339.426 97.6052Z" fill="white"/>
<path d="M352.077 81.5181C352.857 81.5081 353.603 81.199 354.161 80.6547C354.71 80.0997 355.02 79.3524 355.025 78.5721C354.992 77.8106 354.742 77.018 354.161 76.4896C353.608 75.938 352.859 75.6282 352.078 75.6282C351.297 75.6282 350.548 75.938 349.995 76.4896C349.476 77.0076 349.098 77.8382 349.131 78.5721C349.165 79.3337 349.416 80.1263 349.995 80.6547C350.552 81.1949 351.293 81.5035 352.069 81.5181H352.077Z" fill="white"/>
<path d="M341.726 62.5508C342.505 62.5406 343.251 62.2315 343.81 61.6874C344.358 61.1324 344.669 60.3851 344.674 59.6048C344.639 58.8433 344.39 58.0507 343.81 57.5223C343.257 56.9707 342.508 56.6609 341.727 56.6609C340.945 56.6609 340.196 56.9707 339.643 57.5223C339.125 58.0404 338.746 58.8709 338.779 59.6048C338.814 60.3664 339.064 61.159 339.643 61.6874C340.2 62.2276 340.941 62.5363 341.717 62.5508H341.726Z" fill="white"/>
<path d="M381.98 85.5365C382.76 85.5265 383.506 85.2173 384.064 84.673C384.613 84.1181 384.923 83.3707 384.929 82.5905C384.896 81.8307 384.645 81.0364 384.064 80.5183C383.791 80.2439 383.467 80.0262 383.109 79.8777C382.752 79.7291 382.369 79.6526 381.981 79.6526C381.594 79.6526 381.211 79.7291 380.853 79.8777C380.496 80.0262 380.171 80.2439 379.898 80.5183C379.38 81.0364 379.001 81.867 379.034 82.5905C379.069 83.352 379.319 84.1446 379.898 84.673C380.457 85.2153 381.202 85.5241 381.98 85.5365Z" fill="white"/>
<path d="M364.73 68.8727C365.506 68.8601 366.248 68.5512 366.804 68.0093C367.322 67.4913 367.701 66.6607 367.668 65.9371C367.633 65.1756 367.383 64.383 366.804 63.8546C366.251 63.303 365.502 62.9932 364.721 62.9932C363.939 62.9932 363.19 63.303 362.637 63.8546C362.089 64.4096 361.779 65.1569 361.773 65.9371C361.808 66.6987 362.057 67.4913 362.637 68.0093C363.197 68.5512 363.942 68.8599 364.721 68.8727H364.73Z" fill="white"/>
<path d="M364.156 98.1802C364.936 98.1702 365.682 97.8611 366.24 97.3168C366.75 96.7988 367.135 95.9699 367.104 95.2446C367.069 94.4831 366.819 93.6905 366.24 93.1621C365.687 92.6104 364.937 92.3005 364.156 92.3005C363.374 92.3005 362.625 92.6104 362.072 93.1621C361.562 93.6802 361.177 94.5107 361.208 95.2446C361.242 96.0062 361.493 96.7988 362.072 97.3168C362.631 97.8595 363.376 98.1683 364.156 98.1802Z" fill="white"/>
<path d="M386.583 98.1801C387.359 98.1683 388.101 97.8593 388.656 97.3167C389.175 96.7986 389.553 95.9698 389.52 95.2445C389.486 94.483 389.235 93.6904 388.656 93.162C388.104 92.6104 387.354 92.3005 386.573 92.3005C385.792 92.3005 385.043 92.6104 384.49 93.162C383.941 93.7169 383.631 94.4643 383.626 95.2445C383.659 96.006 383.909 96.7986 384.49 97.3167C385.049 97.8593 385.795 98.1682 386.574 98.1801H386.583Z" fill="white"/>
<path d="M189.332 99.3284C190.112 99.3185 190.858 99.0093 191.416 98.465C191.965 97.9101 192.275 97.1627 192.28 96.3825C192.247 95.621 191.997 94.8284 191.416 94.3103C191.143 94.0359 190.819 93.8182 190.461 93.6696C190.103 93.5211 189.72 93.4446 189.333 93.4446C188.946 93.4446 188.562 93.5211 188.205 93.6696C187.847 93.8182 187.523 94.0359 187.25 94.3103C186.731 94.8284 186.353 95.659 186.386 96.3825C186.42 97.144 186.671 97.9366 187.25 98.465C187.806 99.0053 188.548 99.3139 189.323 99.3284H189.332Z" fill="white"/>
<path d="M191.058 52.2072C191.835 52.1954 192.577 51.8864 193.132 51.3438C193.65 50.8258 194.029 49.9952 193.996 49.2716C193.961 48.5101 193.711 47.7175 193.132 47.1891C192.579 46.6375 191.83 46.3276 191.049 46.3276C190.268 46.3276 189.518 46.6375 188.966 47.1891C188.417 47.744 188.107 48.4914 188.102 49.2716C188.134 50.0331 188.385 50.8258 188.966 51.3438C189.525 51.8864 190.27 52.1953 191.05 52.2072H191.058Z" fill="white"/>
<path opacity="0.42" d="M173.536 47.6554C173.536 47.6554 187.407 86.5675 227.475 88.9263C267.543 91.2851 413.433 94.5005 413.433 94.5005V104.537H142.717L155.694 49.712L173.536 47.6484" fill="#77AAE9"/>
</g>
<path d="M118.602 97.9885C118.278 97.048 117.679 96.2262 116.883 95.6295C116.086 95.0329 115.129 94.6888 114.135 94.642C109.305 94.3691 98.6983 94.231 92.0333 97.5914C83.1857 102.053 74.7788 109.569 78.7602 108.47C82.7416 107.372 94.0257 99.3061 99.113 100.069C104.2 100.833 117.299 101.397 118.493 99.8483C118.866 99.351 118.828 98.681 118.602 97.9885Z" fill="#ECC18F"/>
<path d="M118.471 99.1575C118.471 99.1575 97.5993 99.123 95.5914 100.858C93.5834 102.594 82.0885 109.342 83.5487 109.888C85.0089 110.434 96.6817 105.174 99.0578 104.523C101.434 103.872 119.677 106.49 120.225 104.543C120.772 102.597 118.471 99.1575 118.471 99.1575Z" fill="#ECC18F"/>
<path d="M99.1133 100.056C99.1133 100.056 109.309 98.7864 112.765 99.2164C112.763 99.2164 105.815 97.0216 99.1133 100.056Z" fill="#E0A870"/>
<path d="M115.837 94.2776L155.691 76.4241L152.848 100.834C152.848 100.834 122.793 106.267 116.972 106.001C111.152 105.735 115.837 94.2776 115.837 94.2776Z" fill="#9E5C45"/>
<mask id="mask4_722_455" style="mask-type:luminance" maskUnits="userSpaceOnUse" x="114" y="76" width="42" height="31">
<path d="M115.837 94.2776L155.691 76.4241L152.848 100.834C152.848 100.834 122.793 106.267 116.972 106.001C111.152 105.735 115.837 94.2776 115.837 94.2776Z" fill="white"/>
</mask>
<g mask="url(#mask4_722_455)">
<path d="M110.568 100.988C110.568 100.988 142.742 98.5205 161.386 86.5571V104.544L109.652 108.567L110.568 100.988Z" fill="#8A4F3D"/>
</g>
<path d="M134.142 50.0003C134.142 50.0003 115.84 45.11 104.874 36.0131C93.861 26.8609 131.819 10.4234 144.048 12.1277C156.278 13.8321 162.148 50.2162 148.263 72.9497L140.649 39.1179C140.649 39.1179 141.584 47.2374 134.142 50.0003Z" fill="#BCDEF9"/>
<mask id="mask5_722_455" style="mask-type:luminance" maskUnits="userSpaceOnUse" x="102" y="12" width="55" height="61">
<path d="M134.142 50.0003C134.142 50.0003 115.84 45.11 104.874 36.0131C93.861 26.8609 131.819 10.4234 144.048 12.1277C156.278 13.8321 162.148 50.2162 148.263 72.9497L140.649 39.1179C140.649 39.1179 141.584 47.2374 134.142 50.0003Z" fill="white"/>
</mask>
<g mask="url(#mask5_722_455)">
<path opacity="0.42" d="M122.922 46.1392C122.922 46.1392 139.594 36.2739 140.645 29.7085C141.695 23.1432 150 58.3288 147.878 71.2489L140.645 49.3183L132.806 52.1226L122.922 46.1306" fill="#77AAE9"/>
<path opacity="0.54" d="M107.003 25.7298C107.003 25.7298 127.912 41.2712 139.735 47.9367L132.811 52.1311C132.811 52.1311 103.63 41.4629 100.91 34.6903C98.1899 27.9177 107.003 25.7212 107.003 25.7212" fill="white"/>
</g>
<path d="M147.99 80.2283C150.474 80.2283 152.487 78.2166 152.487 75.7351C152.487 73.2536 150.474 71.2419 147.99 71.2419C145.507 71.2419 143.494 73.2536 143.494 75.7351C143.494 78.2166 145.507 80.2283 147.99 80.2283Z" fill="white"/>
<path d="M83.3235 30.4368L88.4056 32.2957L87.795 33.9649L80.1177 31.1568L80.563 29.9392L88.172 24.5881L83.1985 22.7691L83.8133 21.0884L91.3649 23.8505L90.93 25.0395L83.3235 30.4368Z" fill="#242849"/>
<path d="M79.744 12.9851L84.1 14.5784L83.5767 16.0092L76.9961 13.6022L77.3778 12.5586L83.8998 7.97197L79.6368 6.41275L80.1638 4.97217L86.6365 7.33968L86.2638 8.35886L79.744 12.9851Z" fill="#242849"/>
<path d="M65.1644 8.53341L68.7944 9.86114L68.3583 11.0535L62.8745 9.04767L63.1926 8.17794L68.6276 4.35578L65.0751 3.05643L65.5142 1.85595L70.9082 3.82888L70.5976 4.67819L65.1644 8.53341Z" fill="#242849"/>
</g>
<defs>
<clipPath id="clip0_722_455">
<rect width="438" height="121" fill="white"/>
</clipPath>
</defs>
</svg>
