<?xml version="1.0" encoding="UTF-8" standalone="no"?>
<svg
   xmlns:dc="http://purl.org/dc/elements/1.1/"
   xmlns:cc="http://creativecommons.org/ns#"
   xmlns:rdf="http://www.w3.org/1999/02/22-rdf-syntax-ns#"
   xmlns:svg="http://www.w3.org/2000/svg"
   xmlns="http://www.w3.org/2000/svg"
   xmlns:sodipodi="http://sodipodi.sourceforge.net/DTD/sodipodi-0.dtd"
   xmlns:inkscape="http://www.inkscape.org/namespaces/inkscape"
   viewBox="0 0 500 500"
   version="1.1"
   id="svg433"
   sodipodi:docname="girl2.svg"
   inkscape:version="0.92.5 (2060ec1f9f, 2020-04-08)">
  <metadata
     id="metadata439">
    <rdf:RDF>
      <cc:Work
         rdf:about="">
        <dc:format>image/svg+xml</dc:format>
        <dc:type
           rdf:resource="http://purl.org/dc/dcmitype/StillImage" />
        <dc:title></dc:title>
      </cc:Work>
    </rdf:RDF>
  </metadata>
  <defs
     id="defs437" />
  <sodipodi:namedview
     pagecolor="#ffffff"
     bordercolor="#666666"
     borderopacity="1"
     objecttolerance="10"
     gridtolerance="10"
     guidetolerance="10"
     inkscape:pageopacity="0"
     inkscape:pageshadow="2"
     inkscape:window-width="1318"
     inkscape:window-height="742"
     id="namedview435"
     showgrid="false"
     inkscape:zoom="0.6675088"
     inkscape:cx="395.57983"
     inkscape:cy="269.658"
     inkscape:window-x="48"
     inkscape:window-y="0"
     inkscape:window-maximized="1"
     inkscape:current-layer="svg433" />
  <g
     id="freepik--background-complete--inject-2">
    <rect
       x="43.509998"
       y="41.27"
       width="146.97"
       height="264.01999"
       style="fill:#ebebeb"
       id="rect2" />
    <rect
       x="49.380001"
       y="48.919998"
       width="133.71001"
       height="248.5"
       style="fill:#fafafa"
       id="rect4" />
    <polygon
       points="190.48,36.79 196.7,36.79 196.7,307.67 190.48,305.29 "
       style="fill:#e0e0e0"
       id="polygon6" />
    <path
       d="m 82.16,209.44 34.73,-32.28 c 4.4,-4.09 10.15,-8.49 15.81,-6.48 2.72,1 4.77,3.3 7.44,4.41 5.33,2.22 11.42,-1 15.52,-5.06 4.1,-4.06 7.33,-9.15 12.3,-12.1 4.97,-2.95 12.68,-2.58 15.13,2.65 v 35.13 l -50.46,21.6 z"
       style="fill:#f5f5f5"
       id="path8"
       inkscape:connector-curvature="0" />
    <path
       d="m 49.38,189.25 c 12.8,-5.21 25.57,-0.78 34.73,9.56 1.93,2.18 3.68,4.69 6.33,5.9 3.59,1.62 7.73,0.41 11.64,0 A 29.3,29.3 0 0 1 129.63,218 L 86.9,239 49.38,238.72 Z"
       style="fill:#e0e0e0"
       id="path10"
       inkscape:connector-curvature="0" />
    <path
       d="m 183.09,189.42 c -8.43,-4.07 -15.84,0.86 -23.62,6.07 -7.78,5.21 -15,11.89 -24.12,14 -6.09,1.4 -12.62,0.62 -18.52,2.72 -12,4.27 -18.94,19.51 -31.66,20.24 -6.91,0.4 -13.1,-3.79 -19.26,-6.93 -6.16,-3.14 -11,-6.12 -16.53,-1.92 v 73.83 h 133.71 z"
       style="fill:#ebebeb"
       id="path12"
       inkscape:connector-curvature="0" />
    <rect
       x="49.380001"
       y="120.41"
       width="136.61"
       height="2.6500001"
       style="fill:#e0e0e0"
       id="rect14" />
    <rect
       x="49.380001"
       y="179.59"
       width="136.61"
       height="2.6500001"
       style="fill:#e0e0e0"
       id="rect16" />
    <rect
       x="49.380001"
       y="238.75999"
       width="136.61"
       height="2.6500001"
       style="fill:#e0e0e0"
       id="rect18" />
    <rect
       x="24.870001"
       y="209.72"
       width="182.74001"
       height="6.7600002"
       transform="rotate(-90,116.24,213.1)"
       style="fill:#e0e0e0"
       id="rect20" />
    <rect
       x="75.129997"
       y="48.919998"
       width="3.0599999"
       height="72.809998"
       style="fill:#e0e0e0"
       id="rect22" />
    <rect
       x="101.53"
       y="48.919998"
       width="3.0599999"
       height="72.809998"
       style="fill:#e0e0e0"
       id="rect24" />
    <rect
       x="127.92"
       y="48.919998"
       width="3.0599999"
       height="72.809998"
       style="fill:#e0e0e0"
       id="rect26" />
    <rect
       x="154.32001"
       y="48.919998"
       width="3.0599999"
       height="72.809998"
       style="fill:#e0e0e0"
       id="rect28" />
    <rect
       x="37.290001"
       y="36.790001"
       width="6.2199998"
       height="270.13"
       style="fill:#e0e0e0"
       id="rect30" />
    <rect
       x="37.290001"
       y="34.060001"
       width="159.39999"
       height="7.1999998"
       style="fill:#e0e0e0"
       id="rect32" />
    <rect
       x="32.880001"
       y="308.54999"
       width="168.02"
       height="6.71"
       style="fill:#e0e0e0"
       id="rect34" />
    <polygon
       points="32.88,308.55 43.51,305.29 190.48,305.29 200.9,308.55 "
       style="fill:#ebebeb"
       id="polygon36" />
    <path
       d="m 192.21,382.73 a 16.24,16.24 0 0 1 4,-1.77 l 0.8,-4 6.73,-0.17 1,3.95 a 16.3,16.3 0 0 1 4.09,1.57 l 3.39,-2.25 4.87,4.64 -2.09,3.5 a 16.29,16.29 0 0 1 1.77,4 l 4,0.8 0.16,6.72 -3.94,1 a 16.45,16.45 0 0 1 -1.57,4.09 l 2.25,3.38 -4.67,4.88 -3.46,-2.07 a 16.32,16.32 0 0 1 -4,1.78 l -0.8,4 -6.72,0.17 L 197,413 a 16.73,16.73 0 0 1 -4.09,-1.58 l -3.38,2.25 -4.86,-4.67 2.08,-3.49 a 16.66,16.66 0 0 1 -1.78,-4 l -4,-0.8 -0.17,-6.73 3.94,-1 a 16.73,16.73 0 0 1 1.58,-4.09 l -2.25,-3.39 4.63,-4.87 3.49,2.08 z m 3.65,8.94 a 7.21,7.21 0 1 0 10.2,-0.26 7.23,7.23 0 0 0 -10.2,0.26 z"
       style="fill:#e0e0e0"
       id="path38"
       inkscape:connector-curvature="0" />
    <path
       d="m 195.86,391.67 a 5.48,5.48 0 0 1 1.34,-1.19 7.14,7.14 0 0 1 4.7,-1.15 7.31,7.31 0 0 1 5.81,4 7.44,7.44 0 0 1 0.73,4.24 7.33,7.33 0 0 1 -6.05,6.35 6.91,6.91 0 0 1 -2.22,0.06 7,7 0 0 1 -2,-0.57 7.4,7.4 0 0 1 -3,-2.46 7.3,7.3 0 0 1 -0.36,-7.9 5.36,5.36 0 0 1 1.12,-1.39 17,17 0 0 0 -1,1.47 7.18,7.18 0 0 0 -0.76,4.62 6.87,6.87 0 0 0 1.26,3 7,7 0 0 0 2.89,2.32 7,7 0 0 0 4,0.47 7,7 0 0 0 5.72,-6 6.42,6.42 0 0 0 0,-2.1 6.55,6.55 0 0 0 -0.62,-1.92 7,7 0 0 0 -5.51,-3.89 7.2,7.2 0 0 0 -4.58,1 c -1.01,0.58 -1.43,1.07 -1.47,1.04 z"
       style="fill:#e0e0e0"
       id="path40"
       inkscape:connector-curvature="0" />
    <path
       d="m 192.21,382.73 -0.22,-0.11 -0.67,-0.38 -2.63,-1.53 h 0.08 l -4.61,4.89 v -0.13 l 2.27,3.38 v 0.06 0.06 a 16.4,16.4 0 0 0 -1.56,4.07 v 0.08 h -0.08 l -3.94,1 L 181,394 q 0.09,3.18 0.18,6.72 l -0.13,-0.15 4,0.79 h 0.1 v 0.1 a 16.37,16.37 0 0 0 1.76,4 l 0.06,0.09 -0.06,0.1 -2.07,3.49 v -0.23 l 4.88,4.63 h -0.24 l 3.38,-2.25 0.1,-0.07 0.11,0.06 a 16.23,16.23 0 0 0 4,1.55 h 0.12 v 0.12 c 0.31,1.23 0.65,2.58 1,3.94 l -0.21,-0.15 6.73,-0.17 -0.2,0.16 c 0.25,-1.26 0.53,-2.62 0.8,-4 v -0.13 h 0.12 a 16.58,16.58 0 0 0 4,-1.75 v 0 l 0.11,-0.06 0.11,0.06 c 1.17,0.7 2.33,1.4 3.49,2.08 h -0.26 l 4.64,-4.87 v 0.25 l -2.25,-3.38 -0.07,-0.1 0.06,-0.11 a 16.47,16.47 0 0 0 1.56,-4 v -0.12 h 0.11 l 3.95,-1 -0.15,0.19 q -0.09,-3.44 -0.16,-6.72 l 0.15,0.18 -4,-0.8 h -0.11 v -0.11 a 16.54,16.54 0 0 0 -1.76,-4 v -0.09 -0.1 l 2.09,-3.48 v 0.21 l -4.86,-4.65 h 0.19 l -3.38,2.24 -0.08,0.05 h -0.08 a 16.18,16.18 0 0 0 -4,-1.57 h -0.08 v -0.08 c -0.36,-1.43 -0.68,-2.73 -1,-3.95 l 0.12,0.1 -6.73,0.13 0.09,-0.07 c -0.33,1.59 -0.6,2.89 -0.82,4 v 0 0 a 17.93,17.93 0 0 0 -3.07,1.2 l -0.72,0.39 -0.24,0.12 0.23,-0.15 c 0.15,-0.1 0.38,-0.24 0.7,-0.42 a 16.5,16.5 0 0 1 3.06,-1.27 V 381 l 0.77,-4 v -0.07 H 197 l 6.72,-0.2 h 0.1 v 0.09 c 0.31,1.22 0.64,2.51 1,3.94 l -0.1,-0.1 a 16.8,16.8 0 0 1 4.14,1.58 h -0.16 l 3.38,-2.26 0.1,-0.07 0.1,0.09 4.88,4.62 0.1,0.1 -0.07,0.12 c -0.68,1.13 -1.37,2.29 -2.08,3.49 v -0.19 a 17,17 0 0 1 1.8,4 l -0.14,-0.13 4,0.8 h 0.15 V 393 c 0.06,2.19 0.11,4.43 0.17,6.72 v 0.16 h -0.16 l -3.94,1 0.15,-0.15 a 16.56,16.56 0 0 1 -1.59,4.14 v -0.21 l 2.25,3.39 0.09,0.13 -0.11,0.12 -4.64,4.87 -0.11,0.12 -0.14,-0.08 -3.49,-2.08 h 0.21 a 16.5,16.5 0 0 1 -4.06,1.79 l 0.15,-0.15 c -0.28,1.37 -0.55,2.72 -0.8,4 v 0.16 h -0.16 l -6.73,0.16 h -0.16 v -0.15 l -1,-3.94 0.15,0.14 a 16.9,16.9 0 0 1 -4.14,-1.6 h 0.2 l -3.38,2.25 -0.13,0.09 -0.11,-0.11 -4.87,-4.64 -0.11,-0.1 0.08,-0.13 2.09,-3.49 v 0.19 a 16.57,16.57 0 0 1 -1.79,-4.06 l 0.13,0.12 -4,-0.8 h -0.12 v -0.13 c 0,-2.36 -0.1,-4.61 -0.15,-6.72 v -0.12 h 0.11 l 3.95,-1 -0.1,0.1 a 16.6,16.6 0 0 1 1.6,-4.11 V 389 l -2.26,-3.42 -0.05,-0.07 0.06,-0.06 4.67,-4.85 v 0 0 l 2.57,1.58 0.66,0.41 z"
       style="fill:#e0e0e0"
       id="path42"
       inkscape:connector-curvature="0" />
    <path
       d="m 160.52,339.75 a 17.38,17.38 0 0 1 4.26,-1.89 l 0.86,-4.24 7.15,-0.18 1.06,4.2 a 17.71,17.71 0 0 1 4.36,1.68 l 3.6,-2.4 5.18,4.93 -2.21,3.72 a 17.66,17.66 0 0 1 1.89,4.27 l 4.24,0.85 0.18,7.15 -4.2,1.06 a 17.55,17.55 0 0 1 -1.68,4.36 l 2.4,3.6 -4.93,5.14 -3.68,-2.17 a 17.28,17.28 0 0 1 -4.27,1.89 l -0.85,4.24 -7.15,0.18 -1.06,-4.2 a 17.55,17.55 0 0 1 -4.36,-1.68 l -3.6,2.4 -5.18,-4.93 2.17,-3.73 a 17.28,17.28 0 0 1 -1.89,-4.27 l -4.24,-0.85 -0.18,-7.15 4.2,-1.06 a 17.92,17.92 0 0 1 1.67,-4.36 l -2.39,-3.6 4.93,-5.18 3.72,2.21 z m 3.88,9.51 a 7.68,7.68 0 1 0 10.86,-0.27 7.69,7.69 0 0 0 -10.86,0.27 z"
       style="fill:#f5f5f5"
       id="path44"
       inkscape:connector-curvature="0" />
    <path
       d="m 164.4,349.26 a 5.91,5.91 0 0 1 1.42,-1.27 7.71,7.71 0 0 1 5,-1.22 7.86,7.86 0 0 1 6.91,6.42 7.51,7.51 0 0 1 0.06,2.37 7.84,7.84 0 0 1 -6.44,6.76 7.21,7.21 0 0 1 -2.36,0.05 7.33,7.33 0 0 1 -2.19,-0.6 8,8 0 0 1 -3.21,-2.62 7.8,7.8 0 0 1 -1.35,-3.35 7.65,7.65 0 0 1 1,-5.06 5.61,5.61 0 0 1 1.19,-1.48 17.57,17.57 0 0 0 -1,1.57 7.7,7.7 0 0 0 -0.82,4.92 7.5,7.5 0 0 0 1.34,3.18 7.63,7.63 0 0 0 3.05,2.47 7.45,7.45 0 0 0 2,0.6 7,7 0 0 0 2.24,-0.07 7.42,7.42 0 0 0 6.08,-6.39 6.94,6.94 0 0 0 -0.05,-2.23 7,7 0 0 0 -0.66,-2 7.52,7.52 0 0 0 -2.61,-3 7.59,7.59 0 0 0 -8.13,-0.13 c -0.99,0.6 -1.43,1.12 -1.47,1.08 z"
       style="fill:#f5f5f5"
       id="path46"
       inkscape:connector-curvature="0" />
    <path
       d="m 160.52,339.75 a 1,1 0 0 1 -0.24,-0.12 l -0.71,-0.41 -2.8,-1.62 h 0.08 c -1.25,1.34 -2.9,3.1 -4.9,5.22 v -0.14 l 2.41,3.59 v 0.06 0.07 a 17.16,17.16 0 0 0 -1.65,4.33 v 0.08 h -0.09 l -4.19,1.07 0.12,-0.16 q 0.09,3.39 0.19,7.16 l -0.14,-0.17 4.25,0.85 h 0.1 v 0.1 a 17.16,17.16 0 0 0 1.87,4.22 l 0.06,0.1 -0.06,0.1 -2.21,3.72 v -0.25 l 5.19,4.93 h -0.25 l 3.6,-2.4 0.1,-0.07 0.11,0.06 a 16.92,16.92 0 0 0 4.31,1.65 h 0.12 v 0.13 c 0.34,1.31 0.7,2.75 1.07,4.19 l -0.22,-0.16 7.16,-0.18 -0.21,0.18 c 0.27,-1.34 0.56,-2.79 0.85,-4.25 v -0.13 h 0.13 a 17.4,17.4 0 0 0 4.21,-1.87 v 0 l 0.11,-0.07 0.11,0.07 3.72,2.21 h -0.27 l 4.93,-5.18 v 0.27 l -2.4,-3.6 -0.07,-0.11 0.06,-0.12 a 17.09,17.09 0 0 0 1.66,-4.3 v -0.12 h 0.13 l 4.19,-1.06 -0.15,0.21 c -0.06,-2.45 -0.12,-4.83 -0.17,-7.16 l 0.16,0.2 -4.24,-0.86 h -0.12 v -0.11 a 17.26,17.26 0 0 0 -1.87,-4.22 l -0.06,-0.1 0.06,-0.1 c 0.77,-1.27 1.5,-2.51 2.23,-3.71 V 342 l -5.1,-5 h 0.21 l -3.61,2.39 -0.08,0.05 -0.08,-0.05 a 17.64,17.64 0 0 0 -4.31,-1.67 h -0.09 v -0.09 c -0.38,-1.52 -0.72,-2.9 -1,-4.2 l 0.13,0.1 -7.16,0.15 0.09,-0.08 -0.88,4.24 v 0 0 a 18.43,18.43 0 0 0 -3.26,1.28 l -0.77,0.41 a 1,1 0 0 1 -0.25,0.13 l 0.24,-0.16 c 0.16,-0.1 0.4,-0.26 0.75,-0.44 a 17,17 0 0 1 3.25,-1.36 v 0.06 c 0.22,-1.16 0.49,-2.55 0.82,-4.25 v -0.08 h 0.08 l 7.16,-0.21 h 0.1 v 0.1 l 0.97,4.28 -0.1,-0.1 a 17.26,17.26 0 0 1 4.39,1.68 h -0.16 l 3.59,-2.4 0.12,-0.08 0.09,0.1 c 1.65,1.55 3.37,3.19 5.2,4.92 l 0.1,0.1 -0.07,0.13 c -0.72,1.2 -1.45,2.44 -2.21,3.72 v -0.2 a 17.86,17.86 0 0 1 1.92,4.31 l -0.15,-0.14 4.24,0.85 h 0.16 v 0.16 c 0.06,2.33 0.12,4.71 0.19,7.16 V 358 l -0.16,0.05 -4.2,1.06 0.16,-0.16 a 17.57,17.57 0 0 1 -1.7,4.41 v -0.22 c 0.8,1.19 1.59,2.39 2.4,3.6 l 0.1,0.14 -0.12,0.13 -4.94,5.18 -0.12,0.13 -0.15,-0.09 -3.73,-2.23 h 0.22 a 17.82,17.82 0 0 1 -4.31,1.91 l 0.15,-0.17 c -0.29,1.46 -0.58,2.9 -0.85,4.24 v 0.17 h -0.17 l -7.16,0.17 h -0.17 v -0.17 c -0.37,-1.45 -0.73,-2.88 -1.06,-4.2 l 0.16,0.16 a 18,18 0 0 1 -4.41,-1.7 h 0.22 l -3.61,2.39 -0.13,0.09 -0.12,-0.11 -5.18,-4.94 -0.11,-0.11 0.08,-0.13 2.22,-3.72 v 0.2 a 17.8,17.8 0 0 1 -1.9,-4.31 l 0.14,0.12 -4.25,-0.86 h -0.13 v -0.14 c -0.06,-2.51 -0.11,-4.91 -0.16,-7.16 v -0.12 h 0.12 l 4.2,-1 -0.1,0.1 a 17.68,17.68 0 0 1 1.7,-4.38 v 0.13 l -2.39,-3.61 v -0.07 l 0.06,-0.07 5,-5.15 v 0 h 0.05 l 2.74,1.67 0.7,0.44 z"
       style="fill:#f5f5f5"
       id="path48"
       inkscape:connector-curvature="0" />
    <path
       d="m 227.27,378 v 0 l -1.63,-6.47 a 26.78,26.78 0 0 1 -6.71,-2.58 l -5.56,3.7 v 0 l -8,-7.63 v 0 l 3.41,-5.72 a 27.2,27.2 0 0 1 -2.91,-6.57 l -6.55,-1.31 v 0 L 199,340.33 v 0 l 6.46,-1.64 a 26.89,26.89 0 0 1 2.59,-6.7 l -3.7,-5.56 v 0 l 7.62,-8 v 0 l 5.72,3.41 a 27,27 0 0 1 6.57,-2.91 l 1.31,-6.55 v 0 l 11.06,-0.27 v 0 l 1.63,6.46 a 26.81,26.81 0 0 1 6.71,2.59 l 5.56,-3.71 v 0 l 8,7.63 v 0 l -3.41,5.72 a 26.86,26.86 0 0 1 2.91,6.57 l 6.55,1.31 v 0 l 0.27,11.06 v 0 l -6.46,1.63 a 27,27 0 0 1 -2.59,6.71 l 3.7,5.56 v 0 l -7.62,8 v 0 l -5.72,-3.41 a 27.24,27.24 0 0 1 -6.57,2.91 l -1.31,6.55 v 0 z m -8.34,-9.11 v 0 a 26.88,26.88 0 0 0 6.72,2.59 v 0 l 1.64,6.46 11,-0.27 1.32,-6.54 v 0 a 26.72,26.72 0 0 0 6.58,-2.91 v 0 l 5.72,3.41 7.59,-8 -3.69,-5.55 v 0 a 26.88,26.88 0 0 0 2.59,-6.72 v 0 l 6.46,-1.64 -0.27,-11 -6.54,-1.31 v 0 a 26.72,26.72 0 0 0 -2.91,-6.58 v 0 l 3.41,-5.72 -8,-7.59 -5.55,3.69 v 0 a 26.88,26.88 0 0 0 -6.72,-2.59 v 0 l -1.64,-6.46 -11,0.27 -1.27,6.57 v 0 a 26.72,26.72 0 0 0 -6.58,2.91 v 0 l -5.79,-3.45 -7.59,8 3.69,5.55 v 0 a 26.88,26.88 0 0 0 -2.59,6.72 v 0 l -6.46,1.63 0.27,11 6.54,1.32 v 0 a 26.88,26.88 0 0 0 2.91,6.58 v 0 l -3.37,5.74 8,7.59 z m 13.41,-12.34 a 12.52,12.52 0 1 1 0.3,0 z m -8.58,-20 v 0 a 11.82,11.82 0 0 0 8.56,20 h 0.3 a 11.83,11.83 0 0 0 -0.29,-23.65 h -0.3 a 11.76,11.76 0 0 0 -8.27,3.67 z"
       style="fill:#e0e0e0"
       id="path50"
       inkscape:connector-curvature="0" />
    <path
       d="m 223.76,336.53 a 9.14,9.14 0 0 1 2.2,-2 11.77,11.77 0 0 1 7.71,-1.88 12,12 0 0 1 9.55,6.59 11.49,11.49 0 0 1 1.11,3.32 11.36,11.36 0 0 1 0.09,3.64 12.09,12.09 0 0 1 -9.93,10.44 12.32,12.32 0 0 1 -7,-0.85 12.12,12.12 0 0 1 -5,-4.05 12,12 0 0 1 -0.59,-13 9,9 0 0 1 1.84,-2.28 c 0.07,0.05 -0.71,0.78 -1.61,2.41 a 11.85,11.85 0 0 0 -1.25,7.6 11.54,11.54 0 0 0 6.82,8.71 11.53,11.53 0 0 0 6.65,0.77 11.47,11.47 0 0 0 9.39,-9.86 11.06,11.06 0 0 0 -0.07,-3.45 10.69,10.69 0 0 0 -1,-3.15 11.55,11.55 0 0 0 -9,-6.39 11.78,11.78 0 0 0 -7.52,1.63 c -1.64,1.05 -2.33,1.86 -2.39,1.8 z"
       style="fill:#ebebeb"
       id="path52"
       inkscape:connector-curvature="0" />
    <path
       d="m 217.77,321.85 a 2.18,2.18 0 0 1 -0.37,-0.19 l -1.1,-0.62 -4.3,-2.51 h 0.14 l -7.57,8 v -0.21 c 1.12,1.68 2.38,3.55 3.72,5.54 l 0.06,0.1 v 0.11 a 26.57,26.57 0 0 0 -2.55,6.67 v 0.13 h -0.13 l -6.47,1.65 0.18,-0.24 c 0.09,3.48 0.19,7.17 0.3,11 l -0.22,-0.25 6.55,1.3 h 0.17 l 0.05,0.17 a 27.08,27.08 0 0 0 2.89,6.51 l 0.1,0.15 -0.09,0.15 c -1.06,1.78 -2.23,3.74 -3.41,5.74 l -0.06,-0.38 8,7.61 h -0.39 l 5.55,-3.7 0.17,-0.11 0.17,0.1 a 27,27 0 0 0 6.64,2.55 h 0.19 l 0.05,0.2 c 0.52,2 1.08,4.24 1.64,6.47 l -0.33,-0.25 11,-0.28 -0.32,0.27 c 0.42,-2.07 0.86,-4.3 1.31,-6.54 v -0.21 l 0.2,-0.05 a 26.82,26.82 0 0 0 6.5,-2.88 v 0 l 0.18,-0.11 0.18,0.1 5.73,3.42 -0.42,0.06 7.61,-8 v 0.42 l -3.7,-5.56 -0.11,-0.17 0.1,-0.17 a 26.9,26.9 0 0 0 2.56,-6.64 l 0.05,-0.19 0.19,-0.05 6.47,-1.63 -0.24,0.32 q -0.14,-5.65 -0.26,-11 l 0.25,0.29 -6.55,-1.32 h -0.18 l -0.05,-0.17 A 27.13,27.13 0 0 0 255,331 l -0.1,-0.15 0.09,-0.15 3.43,-5.73 0.05,0.35 -8,-7.63 h 0.33 l -5.57,3.68 -0.12,0.08 -0.13,-0.07 a 26.82,26.82 0 0 0 -6.65,-2.58 h -0.14 v -0.13 c -0.59,-2.36 -1.11,-4.48 -1.61,-6.48 l 0.2,0.15 -11.05,0.22 0.15,-0.12 c -0.54,2.61 -1,4.75 -1.36,6.54 V 319 h -0.07 a 28.3,28.3 0 0 0 -5,2 l -1.19,0.63 a 2,2 0 0 1 -0.39,0.2 c 0,0 0.13,-0.09 0.37,-0.25 0.24,-0.16 0.63,-0.39 1.16,-0.68 a 26.17,26.17 0 0 1 5,-2.09 l -0.07,0.08 c 0.34,-1.78 0.76,-3.93 1.27,-6.55 v -0.12 h 0.12 l 11.05,-0.32 h 0.16 v 0.16 l 1.65,6.47 -0.16,-0.17 a 27.49,27.49 0 0 1 6.78,2.6 h -0.25 l 5.55,-3.72 0.17,-0.11 0.15,0.14 8,7.6 0.16,0.16 -0.11,0.19 -3.41,5.78 v -0.31 a 27.41,27.41 0 0 1 3,6.66 l -0.24,-0.22 6.55,1.31 0.25,0.05 v 0.25 q 0.13,5.38 0.29,11 V 350 l -0.25,0.06 -6.47,1.65 0.24,-0.25 a 27.46,27.46 0 0 1 -2.62,6.81 v -0.35 l 3.7,5.56 0.15,0.22 -0.19,0.19 -7.61,8 -0.19,0.19 -0.23,-0.13 -5.73,-3.42 h 0.34 a 27.58,27.58 0 0 1 -6.66,2.95 l 0.24,-0.26 c -0.45,2.25 -0.9,4.48 -1.32,6.55 v 0.26 h -0.27 l -11,0.26 H 227 l -0.06,-0.26 c -0.57,-2.23 -1.12,-4.44 -1.64,-6.47 l 0.25,0.24 a 27.72,27.72 0 0 1 -6.8,-2.63 h 0.33 l -5.56,3.69 -0.21,0.14 -0.18,-0.17 -8,-7.63 -0.18,-0.17 0.13,-0.2 3.42,-5.73 v 0.3 a 27.09,27.09 0 0 1 -2.93,-6.66 l 0.21,0.2 -6.54,-1.33 h -0.21 v -0.21 c -0.08,-3.88 -0.17,-7.57 -0.24,-11 v -0.19 l 0.19,-0.05 6.48,-1.61 -0.17,0.16 A 27.05,27.05 0 0 1 208,331.9 v 0.2 l -3.67,-5.57 -0.08,-0.11 0.1,-0.1 7.66,-8 0.06,-0.06 h 0.07 l 4.23,2.59 1.08,0.68 a 2.67,2.67 0 0 1 0.32,0.32 z"
       style="fill:#ebebeb"
       id="path54"
       inkscape:connector-curvature="0" />
    <path
       d="m 451.49,267.47 a 14.82,14.82 0 0 1 -3.63,1.6 l -0.72,3.61 -6.08,0.15 -0.9,-3.56 a 15.07,15.07 0 0 1 -3.7,-1.43 l -3.06,2 -4.4,-4.2 1.88,-3.15 a 14.82,14.82 0 0 1 -1.6,-3.63 l -3.61,-0.72 -0.15,-6.08 3.57,-0.9 a 15,15 0 0 1 1.42,-3.7 l -2,-3.06 4.2,-4.4 3.15,1.88 a 14.82,14.82 0 0 1 3.63,-1.6 l 0.72,-3.61 6.08,-0.15 0.9,3.57 a 14.89,14.89 0 0 1 3.7,1.42 l 3.06,-2 4.4,4.2 -1.88,3.15 a 14.82,14.82 0 0 1 1.6,3.63 l 3.61,0.72 0.15,6.08 -3.57,0.9 a 14.89,14.89 0 0 1 -1.42,3.7 l 2,3.06 -4.2,4.4 z m -3.3,-8.08 a 6.52,6.52 0 1 0 -9.22,0.23 6.52,6.52 0 0 0 9.22,-0.23 z"
       style="fill:#e0e0e0"
       id="path56"
       inkscape:connector-curvature="0" />
    <path
       d="m 448.19,259.39 a 4.88,4.88 0 0 1 -1.21,1.08 6.63,6.63 0 0 1 -7.15,0 6.74,6.74 0 0 1 -2.35,-2.62 6.26,6.26 0 0 1 -0.61,-1.83 6.44,6.44 0 0 1 -0.05,-2 6.64,6.64 0 0 1 5.47,-5.74 6.12,6.12 0 0 1 2,-0.05 6.33,6.33 0 0 1 1.86,0.52 6.71,6.71 0 0 1 2.73,2.22 6.63,6.63 0 0 1 1.15,2.85 6.45,6.45 0 0 1 -0.83,4.29 4.75,4.75 0 0 1 -1,1.26 c 0,0 0.39,-0.43 0.89,-1.33 a 6.55,6.55 0 0 0 0.69,-4.18 6.41,6.41 0 0 0 -3.76,-4.8 6.5,6.5 0 0 0 -3.66,-0.42 6.32,6.32 0 0 0 -5.17,5.43 6,6 0 0 0 0,1.9 6,6 0 0 0 0.57,1.73 6.42,6.42 0 0 0 9.11,2.62 14.65,14.65 0 0 0 1.32,-0.93 z"
       style="fill:#e0e0e0"
       id="path58"
       inkscape:connector-curvature="0" />
    <path
       d="m 451.49,267.47 a 0.92,0.92 0 0 1 0.2,0.1 l 0.61,0.35 2.37,1.38 h -0.07 l 4.17,-4.43 V 265 l -2.06,-3 v -0.06 -0.05 a 15.05,15.05 0 0 0 1.41,-3.68 v -0.07 h 0.07 l 3.57,-0.91 -0.1,0.13 c -0.06,-1.91 -0.11,-3.94 -0.17,-6.08 l 0.12,0.14 -3.61,-0.71 h -0.09 v -0.09 a 15,15 0 0 0 -1.6,-3.58 l -0.05,-0.09 0.05,-0.08 1.88,-3.16 v 0.21 l -4.41,-4.19 h 0.21 l -3.05,2 -0.09,0.06 h -0.1 a 15,15 0 0 0 -3.65,-1.41 h -0.11 v -0.11 c -0.28,-1.12 -0.59,-2.33 -0.9,-3.56 l 0.18,0.14 -6.08,0.15 0.18,-0.15 c -0.23,1.14 -0.47,2.37 -0.72,3.6 v 0.11 h -0.11 a 14.29,14.29 0 0 0 -3.58,1.58 v 0 l -0.1,0.06 -0.09,-0.06 -3.16,-1.88 h 0.23 l -4.19,4.4 v -0.23 l 2,3.06 0.06,0.09 -0.05,0.1 a 14.66,14.66 0 0 0 -1.41,3.65 v 0.11 h -0.11 l -3.56,0.89 0.13,-0.17 q 0.07,3.1 0.14,6.08 l -0.13,-0.17 3.6,0.73 h 0.1 v 0.1 a 14.6,14.6 0 0 0 1.58,3.58 l 0.05,0.09 -0.05,0.08 c -0.65,1.08 -1.27,2.13 -1.89,3.15 v -0.19 l 4.39,4.2 h -0.18 l 3.07,-2 0.07,-0.05 h 0.07 a 15.05,15.05 0 0 0 3.66,1.43 h 0.07 v 0.08 c 0.32,1.29 0.61,2.46 0.89,3.56 l -0.11,-0.08 6.08,-0.13 -0.08,0.07 c 0.3,-1.44 0.54,-2.61 0.74,-3.6 v 0 0 a 16.13,16.13 0 0 0 2.77,-1.09 l 0.65,-0.35 a 1.08,1.08 0 0 1 0.22,-0.11 l -0.2,0.14 -0.64,0.37 a 14.06,14.06 0 0 1 -2.77,1.15 v 0 l -0.7,3.6 v 0.07 h -0.07 l -6.08,0.18 H 441 v -0.08 c -0.28,-1.11 -0.58,-2.27 -0.91,-3.56 l 0.09,0.08 A 14.67,14.67 0 0 1 436.4,268 h 0.14 l -3.06,2 -0.09,0.06 -0.08,-0.08 -4.42,-4.18 -0.09,-0.09 0.07,-0.11 1.87,-3.15 v 0.16 a 14.93,14.93 0 0 1 -1.62,-3.66 l 0.12,0.12 -3.6,-0.72 h -0.14 v -0.14 c -0.05,-2 -0.1,-4 -0.16,-6.07 V 252 h 0.14 l 3.52,-1 -0.13,0.13 a 15.45,15.45 0 0 1 1.44,-3.75 v 0.19 l -2,-3 -0.08,-0.13 0.1,-0.1 4.19,-4.41 0.1,-0.11 0.13,0.08 3.16,1.88 h -0.19 a 15,15 0 0 1 3.66,-1.62 l -0.13,0.14 0.73,-3.6 v -0.15 h 0.15 l 6.07,-0.15 h 0.15 v 0.14 c 0.31,1.23 0.61,2.45 0.89,3.56 l -0.13,-0.13 a 14.78,14.78 0 0 1 3.74,1.45 h -0.18 l 3.06,-2 0.12,-0.08 0.1,0.1 4.4,4.2 0.09,0.09 -0.07,0.11 c -0.65,1.1 -1.3,2.18 -1.88,3.15 v -0.16 a 15,15 0 0 1 1.61,3.66 l -0.12,-0.1 3.61,0.73 h 0.11 v 0.12 c 0,2.13 0.09,4.16 0.13,6.08 v 0.1 h -0.1 l -3.57,0.89 0.09,-0.09 a 15.24,15.24 0 0 1 -1.44,3.72 v -0.11 l 2,3.06 v 0.07 l -0.06,0.05 c -1.71,1.79 -3.13,3.26 -4.21,4.38 v 0 0 l -2.25,-1.39 -0.6,-0.37 z"
       style="fill:#e0e0e0"
       id="path60"
       inkscape:connector-curvature="0" />
    <path
       d="m 400,252.11 v 0 l 1.45,5.72 a 24.35,24.35 0 0 1 5.94,2.29 l 4.92,-3.28 v 0 l 7.1,6.76 v 0 l -3,5.07 a 24.18,24.18 0 0 1 2.58,5.81 l 5.8,1.17 v 0 l 0.24,9.8 v 0 l -5.74,1.55 a 24.2,24.2 0 0 1 -2.29,5.94 l 3.28,4.93 v 0 l -6.76,7.1 v 0 l -5.07,-3 a 23.7,23.7 0 0 1 -5.82,2.58 l -1.16,5.81 v 0 l -9.8,0.24 v 0 l -1.45,-5.72 a 24.13,24.13 0 0 1 -5.93,-2.29 l -4.93,3.28 v 0 l -7.1,-6.76 v 0 l 3,-5.07 a 23.67,23.67 0 0 1 -2.57,-5.82 l -5.81,-1.16 v 0 l -0.24,-9.79 v 0 l 5.73,-1.44 a 23.63,23.63 0 0 1 2.28,-5.94 l -3.27,-4.93 v 0 l 6.75,-7.1 v 0 l 5.06,3 a 24.22,24.22 0 0 1 5.82,-2.57 l 1.17,-5.81 v 0 z m 7.39,8.07 v 0 a 23.9,23.9 0 0 0 -5.95,-2.3 v 0 l -1.44,-5.73 -9.75,0.24 -1.17,5.8 v 0 a 24.32,24.32 0 0 0 -5.83,2.58 v 0 l -5.07,-3 -6.73,7.07 3.28,4.92 v 0 a 24.27,24.27 0 0 0 -2.29,5.95 v 0 l -5.72,1.45 0.24,9.75 5.79,1.16 v 0 a 23.6,23.6 0 0 0 2.58,5.83 v 0 l -3,5.07 7.07,6.72 4.91,-3.27 v 0 a 23.49,23.49 0 0 0 5.95,2.29 v 0 l 1.44,5.72 9.76,-0.24 1.16,-5.8 v 0 a 24.32,24.32 0 0 0 5.83,-2.58 v 0 l 5.06,3 6.73,-7.07 -3.24,-4.85 v 0 a 23.87,23.87 0 0 0 2.29,-5.95 v 0 l 5.72,-1.45 -0.24,-9.75 -5.8,-1.16 v 0 a 23.8,23.8 0 0 0 -2.59,-5.83 v 0 l 3,-5.07 -7.07,-6.72 z m -11.88,10.94 a 10.21,10.21 0 1 1 -0.26,0 z m 7.6,17.75 v 0 a 10.48,10.48 0 0 0 -7.59,-17.7 h -0.26 a 10.500744,10.500744 0 0 0 0.25,21 h 0.26 a 10.42,10.42 0 0 0 7.34,-3.25 z"
       style="fill:#e0e0e0"
       id="path62"
       inkscape:connector-curvature="0" />
    <path
       d="m 403.12,288.87 a 7.81,7.81 0 0 1 -1.94,1.73 10.47,10.47 0 0 1 -6.84,1.67 10.64,10.64 0 0 1 -8.46,-5.83 10.08,10.08 0 0 1 -1,-2.94 10.26,10.26 0 0 1 -0.08,-3.23 10.71,10.71 0 0 1 8.8,-9.25 10.32,10.32 0 0 1 3.23,-0.08 10.21,10.21 0 0 1 3,0.83 10.7,10.7 0 0 1 4.4,3.59 10.59,10.59 0 0 1 0.52,11.49 7.91,7.91 0 0 1 -1.63,2 24.86,24.86 0 0 0 1.43,-2.14 10.43,10.43 0 0 0 1.11,-6.72 10.25,10.25 0 0 0 -6.05,-7.73 10.42,10.42 0 0 0 -5.89,-0.68 10.18,10.18 0 0 0 -8.31,8.74 9.5,9.5 0 0 0 0.06,3.06 9.33,9.33 0 0 0 0.91,2.79 10.28,10.28 0 0 0 8,5.66 10.47,10.47 0 0 0 6.66,-1.44 23.3,23.3 0 0 0 2.08,-1.52 z"
       style="fill:#ebebeb"
       id="path64"
       inkscape:connector-curvature="0" />
    <path
       d="m 408.43,301.87 0.33,0.17 1,0.56 3.83,2.22 h -0.12 c 1.71,-1.83 4,-4.23 6.7,-7.13 v 0.19 l -3.3,-4.91 -0.06,-0.09 0.05,-0.09 a 24.2,24.2 0 0 0 2.26,-5.92 v -0.11 h 0.11 l 5.73,-1.47 -0.16,0.21 c -0.08,-3.08 -0.17,-6.35 -0.26,-9.78 l 0.19,0.23 -5.8,-1.16 h -0.15 v -0.14 a 24.35,24.35 0 0 0 -2.57,-5.77 l -0.08,-0.13 0.08,-0.14 3,-5.08 v 0.33 l -7.09,-6.73 h 0.35 l -4.92,3.28 -0.15,0.09 -0.15,-0.08 a 23.56,23.56 0 0 0 -5.88,-2.26 h -0.17 v -0.17 c -0.45,-1.8 -1,-3.76 -1.45,-5.74 l 0.29,0.23 -9.78,0.24 0.29,-0.24 -1.17,5.8 v 0.18 h -0.18 a 23.92,23.92 0 0 0 -5.75,2.55 v 0 l -0.15,0.1 -0.16,-0.1 -5.14,-3.01 0.37,-0.05 -6.76,7.05 v -0.37 l 3.27,4.92 0.1,0.15 -0.08,0.16 a 23.31,23.31 0 0 0 -2.27,5.88 v 0.17 h -0.18 l -5.73,1.45 0.22,-0.29 c 0.07,3.34 0.15,6.61 0.23,9.79 l -0.23,-0.27 5.8,1.17 h 0.16 l 0.05,0.15 a 23.68,23.68 0 0 0 2.55,5.78 l 0.08,0.13 -0.08,0.14 -3,5.07 v -0.31 l 7.07,6.76 h -0.28 l 4.93,-3.26 0.11,-0.07 0.11,0.06 a 23.86,23.86 0 0 0 5.89,2.29 h 0.12 v 0.11 l 1.43,5.74 -0.18,-0.13 9.79,-0.2 -0.13,0.11 c 0.48,-2.31 0.87,-4.21 1.2,-5.79 v -0.06 h 0.06 a 24.73,24.73 0 0 0 4.46,-1.75 l 1.05,-0.56 0.35,-0.18 a 2.19,2.19 0 0 1 -0.33,0.23 q -0.33,0.21 -1,0.6 a 23.88,23.88 0 0 1 -4.46,1.85 l 0.07,-0.07 c -0.31,1.58 -0.68,3.48 -1.13,5.8 v 0.11 h -0.1 l -9.79,0.29 h -0.14 v -0.14 c -0.46,-1.77 -0.94,-3.65 -1.47,-5.73 l 0.14,0.15 a 24.28,24.28 0 0 1 -6,-2.3 h 0.23 l -4.92,3.29 -0.15,0.1 -0.14,-0.13 -7.1,-6.73 -0.14,-0.14 0.1,-0.17 3,-5.08 v 0.27 a 24.54,24.54 0 0 1 -2.62,-5.9 l 0.21,0.19 -5.8,-1.15 -0.22,-0.05 v -0.22 q -0.12,-4.77 -0.25,-9.78 v -0.23 l 0.22,-0.06 5.73,-1.45 -0.21,0.21 a 24,24 0 0 1 2.32,-6 v 0.3 l -3.39,-4.85 -0.13,-0.2 0.16,-0.17 6.75,-7.09 0.16,-0.17 0.21,0.12 5.08,3 h -0.31 a 24.4,24.4 0 0 1 5.9,-2.62 l -0.21,0.23 1.17,-5.8 0.05,-0.23 h 0.23 l 9.79,-0.23 h 0.23 l 0.06,0.23 c 0.5,2 1,3.94 1.45,5.73 l -0.22,-0.21 a 24.39,24.39 0 0 1 6,2.33 h -0.3 l 4.93,-3.27 0.18,-0.12 0.16,0.15 c 2.46,2.34 4.86,4.63 7.08,6.76 l 0.16,0.14 -0.11,0.19 -3,5.07 v -0.27 a 24.12,24.12 0 0 1 2.6,5.9 l -0.19,-0.17 5.8,1.17 h 0.19 v 0.19 c 0.08,3.43 0.15,6.7 0.22,9.78 v 0.17 l -0.16,0.05 -5.74,1.43 0.14,-0.15 a 23.8,23.8 0 0 1 -2.33,6 v -0.19 l 3.26,4.94 0.07,0.1 -0.09,0.09 c -2.76,2.87 -5.05,5.24 -6.78,7.05 h -0.06 -0.06 l -3.74,-2.29 -1,-0.6 z"
       style="fill:#ebebeb"
       id="path66"
       inkscape:connector-curvature="0" />
    <rect
       x="408.31"
       y="53.919998"
       width="8.0699997"
       height="40.150002"
       transform="rotate(-0.31,408.26746,73.186611)"
       style="fill:#e0e0e0"
       id="rect68" />
    <rect
       x="338.35999"
       y="54.060001"
       width="20.9"
       height="22.17"
       transform="rotate(-0.31,345.45208,63.775379)"
       style="fill:#ebebeb"
       id="rect70" />
    <rect
       x="359.14999"
       y="53.950001"
       width="20.9"
       height="22.17"
       transform="rotate(-0.31,365.7828,63.830379)"
       style="fill:#f5f5f5"
       id="rect72" />
    <path
       d="m 338.33,60.24 q 20.84,0.16 41.69,-0.2 a 0.22,0.22 0 0 0 0,-0.44 q -20.83,-0.12 -41.69,0.26 a 0.19,0.19 0 0 0 0,0.38 z"
       style="fill:#e0e0e0"
       id="path74"
       inkscape:connector-curvature="0" />
    <rect
       x="325.32001"
       y="75.900002"
       width="37.970001"
       height="18.059999"
       transform="rotate(-0.31,341.70059,84.09609)"
       style="fill:#ebebeb"
       id="rect76" />
    <rect
       x="363.10001"
       y="75.699997"
       width="37.970001"
       height="18.059999"
       transform="rotate(-0.31,378.66552,84.19609)"
       style="fill:#f5f5f5"
       id="rect78" />
    <path
       d="m 325.29,81 c 25.23,0.28 50.54,0 75.76,-0.38 a 0.22,0.22 0 0 0 0,-0.44 c -25.22,-0.13 -50.53,-0.12 -75.75,0.44 a 0.19,0.19 0 0 0 0,0.38 z"
       style="fill:#e0e0e0"
       id="path80"
       inkscape:connector-curvature="0" />
    <rect
       x="311.10001"
       y="94.07"
       width="147.09"
       height="6.4699998"
       style="fill:#e0e0e0"
       id="rect82" />
    <rect
       x="335.17999"
       y="97.18"
       width="5.9699998"
       height="22.08"
       style="fill:#e0e0e0"
       id="rect84" />
    <rect
       x="424.32001"
       y="97.18"
       width="5.9699998"
       height="22.08"
       style="fill:#e0e0e0"
       id="rect86" />
    <rect
       x="416.23001"
       y="38.950001"
       width="8.0699997"
       height="55.220001"
       transform="rotate(-0.31,415.68045,65.813626)"
       style="fill:#ebebeb"
       id="rect88" />
    <rect
       x="424.34"
       y="49.240002"
       width="12.54"
       height="44.75"
       transform="rotate(-0.31,426.75493,71.388365)"
       style="fill:#f5f5f5"
       id="rect90" />
    <path
       d="m 436.67,57.83 a 93.71,93.71 0 0 1 -12.54,0 89.46,89.46 0 0 1 12.54,0 z"
       style="fill:#e0e0e0"
       id="path92"
       inkscape:connector-curvature="0" />
    <path
       d="m 436.67,56 a 93.71,93.71 0 0 1 -12.54,0 89.46,89.46 0 0 1 12.54,0 z"
       style="fill:#e0e0e0"
       id="path94"
       inkscape:connector-curvature="0" />
    <path
       d="m 436.67,87.22 a 89.46,89.46 0 0 1 -12.54,0 93.71,93.71 0 0 1 12.54,0 z"
       style="fill:#e0e0e0"
       id="path96"
       inkscape:connector-curvature="0" />
    <path
       d="m 436.67,85.34 a 89.46,89.46 0 0 1 -12.54,0 93.71,93.71 0 0 1 12.54,0 z"
       style="fill:#e0e0e0"
       id="path98"
       inkscape:connector-curvature="0" />
    <path
       d="m 430.6,81.24 c -0.12,0 -0.21,-4.51 -0.21,-10.08 0,-5.57 0.09,-10.09 0.21,-10.09 0.12,0 0.22,4.52 0.22,10.09 0,5.57 -0.1,10.08 -0.22,10.08 z"
       style="fill:#e0e0e0"
       id="path100"
       inkscape:connector-curvature="0" />
    <rect
       x="436.81"
       y="60.189999"
       width="13.65"
       height="33.779999"
       style="fill:#ebebeb"
       id="rect102" />
    <path
       d="M 422.31,48.35 A 2.32,2.32 0 1 1 420,46 a 2.32,2.32 0 0 1 2.31,2.35 z"
       style="fill:#e0e0e0"
       id="path104"
       inkscape:connector-curvature="0" />
    <rect
       x="419.28"
       y="54.73"
       width="1.4299999"
       height="32.849998"
       style="fill:#e0e0e0"
       id="rect106" />
    <polygon
       points="387.82,468.92 395.19,433.52 350.6,433 356.06,468.92 "
       style="fill:#ebebeb"
       id="polygon108" />
    <path
       d="m 390.75,456 c 0,0.11 -8.13,0.19 -18.17,0.19 -10.04,0 -18.18,-0.08 -18.18,-0.19 0,-0.11 8.14,-0.18 18.18,-0.18 10.04,0 18.17,0.1 18.17,0.18 z"
       style="fill:#fafafa"
       id="path110"
       inkscape:connector-curvature="0" />
    <path
       d="m 390.88,454.26 c 0,0.1 -8.2,0.18 -18.3,0.18 -10.1,0 -18.3,-0.08 -18.3,-0.18 0,-0.1 8.19,-0.19 18.3,-0.19 10.11,0 18.3,0.08 18.3,0.19 z"
       style="fill:#fafafa"
       id="path112"
       inkscape:connector-curvature="0" />
    <path
       d="m 390.81,452.26 c 0,0.1 -8.19,0.19 -18.29,0.19 -10.1,0 -18.3,-0.09 -18.3,-0.19 0,-0.1 8.19,-0.19 18.3,-0.19 10.11,0 18.29,0.09 18.29,0.19 z"
       style="fill:#fafafa"
       id="path114"
       inkscape:connector-curvature="0" />
    <path
       d="m 359.71,466.87 a 28.12,28.12 0 0 1 -1,-4.52 28.7,28.7 0 0 1 -0.61,-4.59 58.93,58.93 0 0 1 1.58,9.11 z"
       style="fill:#fafafa"
       id="path116"
       inkscape:connector-curvature="0" />
    <path
       d="m 361.87,466.49 a 34.72,34.72 0 0 1 -0.39,-4.41 35.17,35.17 0 0 1 -0.21,-4.43 21.8,21.8 0 0 1 0.58,4.4 21.09,21.09 0 0 1 0.02,4.44 z"
       style="fill:#fafafa"
       id="path118"
       inkscape:connector-curvature="0" />
    <path
       d="M 365.81,466.49 A 22.34,22.34 0 0 1 365,462 a 21.94,21.94 0 0 1 -0.24,-4.6 37.7,37.7 0 0 1 0.61,4.55 39.56,39.56 0 0 1 0.44,4.54 z"
       style="fill:#fafafa"
       id="path120"
       inkscape:connector-curvature="0" />
    <path
       d="m 368.57,466.68 a 22.45,22.45 0 0 1 -0.44,-4.6 22.85,22.85 0 0 1 0.14,-4.61 38.56,38.56 0 0 1 0.24,4.6 37.5,37.5 0 0 1 0.06,4.61 z"
       style="fill:#fafafa"
       id="path122"
       inkscape:connector-curvature="0" />
    <path
       d="m 373.47,466.49 a 24.3,24.3 0 0 1 -0.34,-4.36 26.39,26.39 0 0 1 0,-4.38 26.93,26.93 0 0 1 0.34,4.37 26.18,26.18 0 0 1 0,4.37 z"
       style="fill:#fafafa"
       id="path124"
       inkscape:connector-curvature="0" />
    <path
       d="m 377,466.68 a 55.07,55.07 0 0 1 0.07,-9 26.53,26.53 0 0 1 0.15,4.51 28.08,28.08 0 0 1 -0.22,4.49 z"
       style="fill:#fafafa"
       id="path126"
       inkscape:connector-curvature="0" />
    <path
       d="m 380.39,466.2 a 30.71,30.71 0 0 1 0.27,-4.72 30.37,30.37 0 0 1 0.64,-4.68 27.94,27.94 0 0 1 -0.27,4.72 30.12,30.12 0 0 1 -0.64,4.68 z"
       style="fill:#fafafa"
       id="path128"
       inkscape:connector-curvature="0" />
    <path
       d="m 384.71,465.73 a 16,16 0 0 1 0.54,-4 15.48,15.48 0 0 1 1.18,-3.87 36.65,36.65 0 0 1 -0.82,3.95 32.64,32.64 0 0 1 -0.9,3.92 z"
       style="fill:#fafafa"
       id="path130"
       inkscape:connector-curvature="0" />
    <path
       d="m 381.65,362.11 c 0,0 0,0.06 0,0.18 l -0.15,0.5 -0.61,1.94 c -0.27,0.84 -0.59,1.87 -0.93,3.08 -0.34,1.21 -0.77,2.56 -1.14,4.09 -0.37,1.53 -0.84,3.19 -1.24,5 -0.4,1.81 -0.81,3.75 -1.23,5.79 -0.76,4.1 -1.45,8.62 -1.94,13.41 -0.49,4.79 -0.68,9.36 -0.74,13.53 0,2.08 0,4.06 0.05,5.91 0.05,1.85 0.13,3.58 0.23,5.15 0.1,1.57 0.21,3 0.31,4.24 0.1,1.24 0.21,2.32 0.31,3.2 0.1,0.88 0.16,1.53 0.21,2 0,0.21 0,0.38 0,0.52 0,0.14 0,0.19 0,0.19 a 1.32,1.32 0 0 1 0,-0.18 c 0,-0.14 -0.05,-0.31 -0.08,-0.52 -0.07,-0.49 -0.16,-1.16 -0.28,-2 -0.12,-0.84 -0.26,-1.95 -0.37,-3.2 -0.11,-1.25 -0.28,-2.67 -0.37,-4.24 -0.09,-1.57 -0.22,-3.3 -0.27,-5.16 -0.05,-1.86 -0.08,-3.84 -0.09,-5.93 0,-4.17 0.25,-8.76 0.72,-13.56 0.47,-4.8 1.19,-9.33 2,-13.43 0.42,-2.05 0.8,-4 1.26,-5.8 0.46,-1.8 0.86,-3.48 1.28,-5 0.42,-1.52 0.84,-2.88 1.2,-4.08 0.36,-1.2 0.7,-2.23 1,-3.06 0.3,-0.83 0.5,-1.45 0.67,-1.92 l 0.18,-0.5 a 1,1 0 0 1 0.02,-0.15 z"
       style="fill:#ebebeb"
       id="path132"
       inkscape:connector-curvature="0" />
    <path
       d="m 375.92,384.35 a 11.82,11.82 0 0 1 4.94,-6.23 2.8,2.8 0 0 1 2.61,-0.48 c 1.11,0.53 1.2,2.09 0.87,3.28 a 8.71,8.71 0 0 1 -3.6,4.9 7.31,7.31 0 0 1 -5.39,1.36"
       style="fill:#ebebeb"
       id="path134"
       inkscape:connector-curvature="0" />
    <path
       d="m 374,399.37 c 0.82,-3.1 3.3,-7.5 5.87,-9.42 a 3.65,3.65 0 0 1 1.33,-0.71 1.51,1.51 0 0 1 1.42,0.31 2.14,2.14 0 0 1 0.32,2.05 12.49,12.49 0 0 1 -9.26,9.33"
       style="fill:#ebebeb"
       id="path136"
       inkscape:connector-curvature="0" />
    <path
       d="m 373.46,412.6 a 18,18 0 0 1 5.92,-7.44 2.84,2.84 0 0 1 2.06,-0.74 c 1.12,0.21 1.63,1.58 1.53,2.71 -0.2,2.34 -2,4.22 -3.83,5.67 a 23.6,23.6 0 0 1 -5.47,2.81"
       style="fill:#ebebeb"
       id="path138"
       inkscape:connector-curvature="0" />
    <path
       d="m 373.76,422.1 a 17.55,17.55 0 0 1 5,-5.73 3.6,3.6 0 0 1 1.51,-0.67 1.53,1.53 0 0 1 1.48,0.56 c 0.51,0.74 0,1.74 -0.51,2.46 a 14.41,14.41 0 0 1 -7.18,5.27"
       style="fill:#ebebeb"
       id="path140"
       inkscape:connector-curvature="0" />
    <path
       d="m 373.51,418.24 a 56,56 0 0 0 -7.2,-7.33 c -0.4,-0.34 -0.92,-0.71 -1.43,-0.54 a 1.08,1.08 0 0 0 -0.66,1 2.84,2.84 0 0 0 0.27,1.2 14,14 0 0 0 9.27,7.79"
       style="fill:#ebebeb"
       id="path142"
       inkscape:connector-curvature="0" />
    <path
       d="M 373.74,405.87 368.09,399 a 6.76,6.76 0 0 0 -1.84,-1.74 2.32,2.32 0 0 0 -2.41,0 2.3,2.3 0 0 0 -0.77,2.28 6,6 0 0 0 1.1,2.26 16.7,16.7 0 0 0 4.12,4.38 c 1.66,1.14 3.17,1.88 5.16,1.59"
       style="fill:#ebebeb"
       id="path144"
       inkscape:connector-curvature="0" />
    <path
       d="m 374.53,392 a 19.69,19.69 0 0 0 -5.69,-8.54 3.31,3.31 0 0 0 -1.48,-0.87 2.5,2.5 0 0 0 -2.6,1.82 4.66,4.66 0 0 0 0.52,3.74 9.63,9.63 0 0 0 2.66,2.81 22.63,22.63 0 0 0 6.28,3.4"
       style="fill:#ebebeb"
       id="path146"
       inkscape:connector-curvature="0" />
    <path
       d="m 376.79,379.53 c -0.55,-4 -2.63,-7.32 -5,-10.55 -0.51,-0.69 -1.22,-1.41 -2.06,-1.28 a 1.62,1.62 0 0 0 -1.18,1 3.77,3.77 0 0 0 -0.22,1.6 12.33,12.33 0 0 0 8,11"
       style="fill:#ebebeb"
       id="path148"
       inkscape:connector-curvature="0" />
    <path
       d="m 378.37,373.19 a 32.77,32.77 0 0 1 -0.21,-6.18 11,11 0 0 1 2,-5.75 4.75,4.75 0 0 1 2.05,-1.64 2.63,2.63 0 0 1 2.52,0.33 2.73,2.73 0 0 1 0.86,2.22 7.06,7.06 0 0 1 -0.63,2.37 c -1.51,3.62 -4,7.63 -6.64,8.65"
       style="fill:#ebebeb"
       id="path150"
       inkscape:connector-curvature="0" />
    <path
       d="m 353.74,378 a 3.28,3.28 0 0 1 0,0.51 c 0,0.37 0,0.85 0,1.45 0,0.6 0,1.4 0,2.29 0,0.89 0,1.91 0.11,3 0.1,2.25 0.32,4.92 0.66,7.87 0.34,2.95 0.87,6.19 1.56,9.55 0.69,3.36 1.55,6.51 2.4,9.36 0.85,2.85 1.75,5.38 2.57,7.48 0.38,1.05 0.78,2 1.11,2.82 0.33,0.82 0.64,1.54 0.89,2.11 0.25,0.57 0.43,1 0.57,1.34 a 2.74,2.74 0 0 1 0.18,0.47 c 0,0 -0.1,-0.14 -0.25,-0.44 l -0.63,-1.31 c -0.27,-0.57 -0.6,-1.26 -0.95,-2.09 -0.35,-0.83 -0.77,-1.75 -1.17,-2.81 -0.85,-2.09 -1.75,-4.62 -2.64,-7.47 -0.89,-2.85 -1.73,-6 -2.44,-9.39 -0.71,-3.39 -1.19,-6.61 -1.54,-9.58 -0.35,-2.97 -0.52,-5.64 -0.58,-7.9 -0.06,-1.12 -0.05,-2.14 -0.06,-3 -0.01,-0.86 0,-1.66 0,-2.29 l 0.06,-1.46 a 2.42,2.42 0 0 1 0.15,-0.51 z"
       style="fill:#e0e0e0"
       id="path152"
       inkscape:connector-curvature="0" />
    <path
       d="m 354.62,394.33 a 8.47,8.47 0 0 1 2,-5.31 2.06,2.06 0 0 1 1.68,-0.89 c 0.87,0.13 1.27,1.17 1.3,2.05 a 6.2,6.2 0 0 1 -1.4,4.11 5.21,5.21 0 0 1 -3.38,2.08"
       style="fill:#e0e0e0"
       id="path154"
       inkscape:connector-curvature="0" />
    <path
       d="m 356.54,405 a 14.24,14.24 0 0 1 2,-7.68 2.75,2.75 0 0 1 0.75,-0.77 1.1,1.1 0 0 1 1,-0.1 1.59,1.59 0 0 1 0.66,1.34 8.94,8.94 0 0 1 -4.3,8.34"
       style="fill:#e0e0e0"
       id="path156"
       inkscape:connector-curvature="0" />
    <path
       d="m 359,414.09 a 13,13 0 0 1 2.42,-6.34 2,2 0 0 1 1.25,-0.94 c 0.81,-0.11 1.45,0.72 1.63,1.51 0.36,1.64 -0.45,3.3 -1.39,4.69 a 17.2,17.2 0 0 1 -3.12,3.09"
       style="fill:#e0e0e0"
       id="path158"
       inkscape:connector-curvature="0" />
    <path
       d="m 361.28,420.5 a 12.52,12.52 0 0 1 2.19,-5 2.63,2.63 0 0 1 0.88,-0.78 1.09,1.09 0 0 1 1.13,0.06 c 0.51,0.4 0.39,1.18 0.18,1.79 a 10.28,10.28 0 0 1 -3.75,5.13"
       style="fill:#e0e0e0"
       id="path160"
       inkscape:connector-curvature="0" />
    <path
       d="m 360.28,417.92 a 39.8,39.8 0 0 0 -6.48,-3.44 1.15,1.15 0 0 0 -1.09,-0.06 0.76,0.76 0 0 0 -0.24,0.8 1.94,1.94 0 0 0 0.44,0.76 10,10 0 0 0 8,3.31"
       style="fill:#e0e0e0"
       id="path162"
       inkscape:connector-curvature="0" />
    <path
       d="M 357.77,409.45 352.44,406 a 5.08,5.08 0 0 0 -1.62,-0.79 1.66,1.66 0 0 0 -1.65,0.5 1.64,1.64 0 0 0 0,1.72 4.26,4.26 0 0 0 1.24,1.3 12,12 0 0 0 3.75,2.1 4.9,4.9 0 0 0 3.85,0"
       style="fill:#e0e0e0"
       id="path164"
       inkscape:connector-curvature="0" />
    <path
       d="m 355.31,399.8 a 14.06,14.06 0 0 0 -5.71,-4.59 2.32,2.32 0 0 0 -1.2,-0.27 1.76,1.76 0 0 0 -1.37,1.8 3.28,3.28 0 0 0 1.16,2.43 6.88,6.88 0 0 0 2.41,1.34 15.9,15.9 0 0 0 5,1"
       style="fill:#e0e0e0"
       id="path166"
       inkscape:connector-curvature="0" />
    <path
       d="m 354.17,390.86 a 16.41,16.41 0 0 0 -5.7,-6.1 1.71,1.71 0 0 0 -1.67,-0.43 1.17,1.17 0 0 0 -0.59,0.95 2.75,2.75 0 0 0 0.19,1.13 8.8,8.8 0 0 0 7.83,5.78"
       style="fill:#e0e0e0"
       id="path168"
       inkscape:connector-curvature="0" />
    <path
       d="m 353.89,386.2 a 22.86,22.86 0 0 1 -1.47,-4.16 7.88,7.88 0 0 1 0.15,-4.36 3.49,3.49 0 0 1 1.05,-1.56 1.87,1.87 0 0 1 1.79,-0.31 2,2 0 0 1 1.06,1.32 5.15,5.15 0 0 1 0.08,1.75 c -0.25,2.79 -1.1,6.07 -2.66,7.32"
       style="fill:#e0e0e0"
       id="path170"
       inkscape:connector-curvature="0" />
    <path
       d="m 393.9,377.6 a 4,4 0 0 1 0,0.51 l 0.05,1.45 c 0,0.63 0,1.4 0,2.29 0,0.89 0,1.92 0,3 -0.07,2.25 -0.26,4.93 -0.58,7.9 -0.32,2.97 -0.85,6.2 -1.54,9.57 -0.69,3.37 -1.57,6.54 -2.44,9.4 -0.87,2.86 -1.8,5.37 -2.65,7.46 -0.4,1.06 -0.82,2 -1.17,2.81 -0.35,0.81 -0.67,1.53 -0.95,2.09 l -0.63,1.31 a 2.44,2.44 0 0 1 -0.24,0.44 3.7,3.7 0 0 1 0.17,-0.47 c 0.15,-0.34 0.34,-0.78 0.57,-1.34 0.23,-0.56 0.56,-1.28 0.89,-2.11 0.33,-0.83 0.74,-1.76 1.12,-2.82 0.81,-2.1 1.69,-4.63 2.56,-7.47 0.87,-2.84 1.69,-6 2.4,-9.37 0.71,-3.37 1.2,-6.59 1.57,-9.54 0.37,-2.95 0.55,-5.63 0.65,-7.87 0.08,-1.13 0.08,-2.15 0.11,-3 0.03,-0.85 0,-1.66 0,-2.29 0,-0.63 0,-1.08 0,-1.45 a 1.88,1.88 0 0 1 0.11,-0.5 z"
       style="fill:#ebebeb"
       id="path172"
       inkscape:connector-curvature="0" />
    <path
       d="m 393,394 a 8.44,8.44 0 0 0 -2,-5.31 2,2 0 0 0 -1.67,-0.89 c -0.87,0.13 -1.27,1.17 -1.3,2.05 a 6.19,6.19 0 0 0 1.39,4.11 5.26,5.26 0 0 0 3.38,2.09"
       style="fill:#ebebeb"
       id="path174"
       inkscape:connector-curvature="0" />
    <path
       d="m 391.09,404.62 a 14.25,14.25 0 0 0 -2,-7.68 2.79,2.79 0 0 0 -0.76,-0.77 1.09,1.09 0 0 0 -1,-0.1 1.54,1.54 0 0 0 -0.66,1.34 8.9,8.9 0 0 0 4.3,8.34"
       style="fill:#ebebeb"
       id="path176"
       inkscape:connector-curvature="0" />
    <path
       d="m 388.61,413.74 a 13,13 0 0 0 -2.43,-6.34 2,2 0 0 0 -1.25,-0.94 c -0.8,-0.1 -1.45,0.72 -1.62,1.51 -0.37,1.64 0.45,3.3 1.39,4.69 a 16.87,16.87 0 0 0 3.12,3.09"
       style="fill:#ebebeb"
       id="path178"
       inkscape:connector-curvature="0" />
    <path
       d="m 386.36,420.15 a 12.4,12.4 0 0 0 -2.2,-5 2.53,2.53 0 0 0 -0.88,-0.78 1.11,1.11 0 0 0 -1.13,0.06 c -0.5,0.4 -0.39,1.18 -0.18,1.79 a 10.3,10.3 0 0 0 3.76,5.13"
       style="fill:#ebebeb"
       id="path180"
       inkscape:connector-curvature="0" />
    <path
       d="m 387.36,417.57 a 40.49,40.49 0 0 1 6.47,-3.44 1.17,1.17 0 0 1 1.1,-0.06 0.76,0.76 0 0 1 0.24,0.8 2,2 0 0 1 -0.45,0.76 9.94,9.94 0 0 1 -8,3.31"
       style="fill:#ebebeb"
       id="path182"
       inkscape:connector-curvature="0" />
    <path
       d="m 389.86,409.1 5.34,-3.47 a 4.61,4.61 0 0 1 1.62,-0.79 1.46,1.46 0 0 1 1.68,2.21 4.27,4.27 0 0 1 -1.23,1.31 12.14,12.14 0 0 1 -3.75,2.09 4.92,4.92 0 0 1 -3.86,0"
       style="fill:#ebebeb"
       id="path184"
       inkscape:connector-curvature="0" />
    <path
       d="m 392.33,399.45 a 14,14 0 0 1 5.71,-4.59 2.29,2.29 0 0 1 1.19,-0.27 1.79,1.79 0 0 1 1.38,1.8 3.38,3.38 0 0 1 -1.16,2.44 7.22,7.22 0 0 1 -2.41,1.34 16.23,16.23 0 0 1 -5,0.95"
       style="fill:#ebebeb"
       id="path186"
       inkscape:connector-curvature="0" />
    <path
       d="m 393.46,390.51 c 1.23,-2.6 3.37,-4.42 5.7,-6.1 a 1.74,1.74 0 0 1 1.68,-0.43 1.16,1.16 0 0 1 0.58,0.95 2.59,2.59 0 0 1 -0.19,1.13 8.82,8.82 0 0 1 -7.83,5.79"
       style="fill:#ebebeb"
       id="path188"
       inkscape:connector-curvature="0" />
    <path
       d="m 393.75,385.85 a 22.86,22.86 0 0 0 1.47,-4.16 7.88,7.88 0 0 0 -0.16,-4.36 3.39,3.39 0 0 0 -1,-1.55 1.86,1.86 0 0 0 -1.79,-0.32 2,2 0 0 0 -1.07,1.33 5.08,5.08 0 0 0 -0.07,1.74 c 0.24,2.8 1.09,6.07 2.66,7.32"
       style="fill:#ebebeb"
       id="path190"
       inkscape:connector-curvature="0" />
    <path
       d="m 347,425.88 v 6.73 a 2.65,2.65 0 0 0 2.65,2.64 h 46 a 2.65,2.65 0 0 0 2.65,-2.64 v -6.73 z"
       style="fill:#ebebeb"
       id="path192"
       inkscape:connector-curvature="0" />
    <polygon
       points="393.76,440.42 394.83,435.25 350.94,435.25 351.32,437.39 "
       style="fill:#e0e0e0"
       id="polygon194" />
    <rect
       x="363.79999"
       y="136.06"
       width="60.02"
       height="62.560001"
       style="fill:#e0e0e0"
       id="rect196" />
    <rect
       x="359.73001"
       y="136.06"
       width="60.02"
       height="62.560001"
       style="fill:#fafafa"
       id="rect198" />
    <path
       d="m 419.77,198.64 h -60 V 136 h 60 z m -60,0 h 60 v -62.56 h -60 z"
       style="fill:#e0e0e0"
       id="path200"
       inkscape:connector-curvature="0" />
    <rect
       x="367.79999"
       y="144.47"
       width="43.880001"
       height="45.740002"
       style="fill:#fafafa"
       id="rect202" />
    <path
       d="m 367.8,190.52 a 6.86,6.86 0 0 1 -1.08,1.26 c -0.7,0.74 -1.69,1.74 -2.79,2.83 -1.1,1.09 -2.12,2 -2.87,2.74 a 7.63,7.63 0 0 1 -1.26,1.06 6.51,6.51 0 0 1 1.07,-1.26 c 0.7,-0.74 1.69,-1.74 2.8,-2.83 1.11,-1.09 2.12,-2.06 2.87,-2.75 a 7.05,7.05 0 0 1 1.26,-1.05 z"
       style="fill:#e0e0e0"
       id="path204"
       inkscape:connector-curvature="0" />
    <path
       d="m 411.69,190.41 a 7,7 0 0 1 1.25,1.08 c 0.74,0.7 1.75,1.69 2.83,2.79 1.08,1.1 2.06,2.12 2.75,2.87 a 7.2,7.2 0 0 1 1.05,1.26 6.67,6.67 0 0 1 -1.25,-1.07 c -0.74,-0.7 -1.74,-1.69 -2.83,-2.8 -1.09,-1.11 -2.07,-2.12 -2.75,-2.87 a 6.53,6.53 0 0 1 -1.05,-1.26 z"
       style="fill:#e0e0e0"
       id="path206"
       inkscape:connector-curvature="0" />
    <path
       d="m 411.57,144.59 a 6.86,6.86 0 0 1 1.08,-1.26 c 0.7,-0.74 1.68,-1.74 2.79,-2.82 1.11,-1.08 2.12,-2.06 2.86,-2.75 a 6.5,6.5 0 0 1 1.27,-1 7.07,7.07 0 0 1 -1.07,1.24 c -0.71,0.74 -1.69,1.74 -2.8,2.83 -1.11,1.09 -2.12,2.06 -2.87,2.75 a 7.05,7.05 0 0 1 -1.26,1.01 z"
       style="fill:#e0e0e0"
       id="path208"
       inkscape:connector-curvature="0" />
    <path
       d="m 367.68,144.71 a 7.84,7.84 0 0 1 -1.26,-1.09 c -0.74,-0.7 -1.74,-1.68 -2.82,-2.79 -1.08,-1.11 -2.06,-2.12 -2.75,-2.86 a 6.5,6.5 0 0 1 -1.05,-1.27 6.92,6.92 0 0 1 1.25,1.08 c 0.74,0.7 1.74,1.68 2.83,2.79 1.09,1.11 2.06,2.12 2.75,2.87 a 6.5,6.5 0 0 1 1.05,1.27 z"
       style="fill:#e0e0e0"
       id="path210"
       inkscape:connector-curvature="0" />
    <path
       d="m 411.57,190.21 a 0.72,0.72 0 0 1 0,-0.22 c 0,-0.15 0,-0.36 0,-0.64 0,-0.57 0,-1.39 0,-2.47 0,-2.16 0,-5.31 0,-9.32 0,-8 -0.05,-19.42 -0.08,-33.09 l 0.17,0.17 H 367.9 v 0 l 0.2,-0.2 c 0,16.79 0,32.5 0,45.74 l -0.17,-0.16 31.69,0.08 8.9,0.05 h 2.35 v 0 h -2.32 l -8.86,0.05 -31.8,0.08 h -0.16 v -0.17 c 0,-13.24 0,-29 0,-45.74 v -0.19 h 0.2 43.76 0.17 v 0.17 c 0,13.71 -0.06,25.16 -0.08,33.2 0,4 0,7.13 0,9.28 0,1.06 0,1.88 0,2.44 0,0.27 0,0.47 0,0.62 z"
       style="fill:#e0e0e0"
       id="path212"
       inkscape:connector-curvature="0" />
    <rect
       x="382.42001"
       y="160.02"
       width="14.64"
       height="14.64"
       style="fill:#ebebeb"
       id="rect214" />
  </g>
  <g
     id="freepik--Browser--inject-2">
    <rect
       x="63.470001"
       y="294.13"
       width="372.29999"
       height="48.509998"
       rx="22.540001"
       style="fill:#fafafa"
       id="rect217" />
    <path
       d="m 349.85,294.13 h 64.2 a 21.71,21.71 0 0 1 21.71,21.71 v 5.08 a 21.71,21.71 0 0 1 -21.71,21.71 h -64.2 z"
       style="fill:#4f80ff"
       id="path219"
       inkscape:connector-curvature="0" />
    <path
       d="m 104.58,319.42 v 6.41 H 102 v -6.08 c 0,-2 -1,-2.95 -2.66,-2.95 -1.86,0 -3.12,1.13 -3.12,3.37 v 5.66 h -2.66 v -15.55 h 2.62 v 5.66 a 5,5 0 0 1 3.73,-1.42 c 2.68,0 4.67,1.53 4.67,4.9 z"
       style="fill:#263238"
       id="path221"
       inkscape:connector-curvature="0" />
    <path
       d="m 114.64,325.22 a 4.13,4.13 0 0 1 -2.51,0.76 c -2.45,0 -3.86,-1.3 -3.86,-3.78 v -5.38 h -1.84 v -2.09 h 1.84 v -2.56 h 2.62 v 2.56 h 3 v 2.09 h -3 v 5.32 c 0,1.09 0.55,1.68 1.55,1.68 a 2.38,2.38 0 0 0 1.47,-0.46 z"
       style="fill:#263238"
       id="path223"
       inkscape:connector-curvature="0" />
    <path
       d="m 123.25,325.22 a 4.11,4.11 0 0 1 -2.51,0.76 c -2.45,0 -3.85,-1.3 -3.85,-3.78 v -5.38 H 115 v -2.09 h 1.85 v -2.56 h 2.61 v 2.56 h 3 v 2.09 h -3 v 5.32 c 0,1.09 0.55,1.68 1.55,1.68 a 2.38,2.38 0 0 0 1.47,-0.46 z"
       style="fill:#263238"
       id="path225"
       inkscape:connector-curvature="0" />
    <path
       d="m 137.29,320.24 a 5.45,5.45 0 0 1 -5.67,5.74 4.63,4.63 0 0 1 -3.59,-1.51 v 5.42 h -2.62 v -15.25 h 2.5 v 1.47 a 4.61,4.61 0 0 1 3.71,-1.59 5.44,5.44 0 0 1 5.67,5.72 z m -2.66,0 a 3.32,3.32 0 1 0 -3.31,3.49 3.25,3.25 0 0 0 3.31,-3.49 z"
       style="fill:#263238"
       id="path227"
       inkscape:connector-curvature="0" />
    <path
       d="m 138.91,316.25 a 1.72,1.72 0 1 1 3.43,0 1.72,1.72 0 1 1 -3.43,0 z m 0,8 a 1.72,1.72 0 1 1 3.43,0 1.72,1.72 0 1 1 -3.43,0 z"
       style="fill:#263238"
       id="path229"
       inkscape:connector-curvature="0" />
    <path
       d="m 150.52,308.19 h 2.34 L 146,327.92 h -2.4 z"
       style="fill:#263238"
       id="path231"
       inkscape:connector-curvature="0" />
    <path
       d="m 156.82,308.19 h 2.35 l -6.91,19.73 h -2.35 z"
       style="fill:#263238"
       id="path233"
       inkscape:connector-curvature="0" />
    <path
       d="m 176.85,314.64 -4.12,11.19 h -2.52 l -2.89,-7.71 -2.93,7.71 h -2.52 l -4.1,-11.19 h 2.47 l 2.95,8.26 3.08,-8.26 h 2.2 l 3,8.3 3,-8.3 z"
       style="fill:#263238"
       id="path235"
       inkscape:connector-curvature="0" />
    <path
       d="m 195.9,314.64 -4.13,11.19 h -2.51 l -2.89,-7.71 -2.94,7.71 h -2.51 l -4.11,-11.19 h 2.48 l 3,8.26 3.08,-8.26 h 2.2 l 3,8.3 3,-8.3 z"
       style="fill:#263238"
       id="path237"
       inkscape:connector-curvature="0" />
    <path
       d="m 215,314.64 -4.13,11.19 h -2.51 l -2.89,-7.71 -2.94,7.71 H 200 l -4.11,-11.19 h 2.47 l 3,8.26 3.08,-8.26 h 2.2 l 3,8.3 3,-8.3 z"
       style="fill:#263238"
       id="path239"
       inkscape:connector-curvature="0" />
    <path
       d="m 215.18,324.24 a 1.72,1.72 0 1 1 3.44,0 1.72,1.72 0 1 1 -3.44,0 z"
       style="fill:#263238"
       id="path241"
       inkscape:connector-curvature="0" />
    <path
       d="m 413.22,342.63 2.07,-0.12 c 0.68,-0.07 1.52,-0.22 2.52,-0.38 a 24.69,24.69 0 0 0 3.37,-1 22.43,22.43 0 0 0 8.17,-5.38 24,24 0 0 0 3.7,-5.07 22.66,22.66 0 0 0 2.28,-6.75 39.51,39.51 0 0 0 0.3,-8 21.89,21.89 0 0 0 -2,-8.53 22.73,22.73 0 0 0 -5.72,-7.64 22,22 0 0 0 -9.12,-4.77 23,23 0 0 0 -5.41,-0.71 h -17.6 -25.91 L 86,294.34 a 22.42,22.42 0 0 0 -21.9,17.87 c -0.11,0.84 -0.28,1.66 -0.35,2.5 -0.07,0.84 -0.11,1.67 -0.1,2.52 v 2.54 c 0,0.84 0.08,1.67 0.11,2.51 a 22.29,22.29 0 0 0 19.1,19.9 18,18 0 0 0 2.43,0.21 c 0.81,0.06 1.64,0 2.46,0 h 80.27 l 127.6,0.05 86,0.07 h 23.39 6.08 2.07 c 0,0 -0.7,0 -2.07,0 h -6.08 -23.39 l -86,0.07 H 168.02 87.78 c -0.83,0 -1.64,0 -2.47,0 a 18.57,18.57 0 0 1 -2.48,-0.21 22.71,22.71 0 0 1 -19.46,-20.28 c 0,-0.85 -0.11,-1.71 -0.12,-2.55 V 317 c 0,-0.84 0.07,-1.71 0.11,-2.56 0.04,-0.85 0.23,-1.69 0.35,-2.54 A 22.85,22.85 0 0 1 86,293.91 l 283.84,0.06 h 25.91 17.6 a 23,23 0 0 1 5.47,0.73 22.1,22.1 0 0 1 9.2,4.83 23,23 0 0 1 5.77,7.72 22.35,22.35 0 0 1 2,8.61 40.68,40.68 0 0 1 -0.32,8 23.24,23.24 0 0 1 -2.32,6.79 24,24 0 0 1 -3.74,5.09 22.46,22.46 0 0 1 -8.23,5.37 24.56,24.56 0 0 1 -3.39,1 c -1,0.15 -1.84,0.31 -2.53,0.36 z"
       style="fill:#263238"
       id="path243"
       inkscape:connector-curvature="0" />
    <path
       d="m 386.34,325 a 10.51,10.51 0 1 1 10.51,-10.5 10.51,10.51 0 0 1 -10.51,10.5 z m 0,-20.18 a 9.68,9.68 0 1 0 9.66,9.68 9.69,9.69 0 0 0 -9.66,-9.68 z"
       style="fill:#ffffff"
       id="path245"
       inkscape:connector-curvature="0" />
    <path
       d="m 402.84,332.89 a 0.43,0.43 0 0 1 -0.3,-0.13 L 393,322.45 a 0.42,0.42 0 0 1 0.61,-0.57 l 9.59,10.31 a 0.43,0.43 0 0 1 0,0.59 0.46,0.46 0 0 1 -0.36,0.11 z"
       style="fill:#ffffff"
       id="path247"
       inkscape:connector-curvature="0" />
    <path
       d="m 222.41,329.47 c -0.12,0 -0.22,-4.94 -0.22,-11 0,-6.06 0.1,-11 0.22,-11 0.12,0 0.21,4.94 0.21,11 0,6.06 -0.09,11 -0.21,11 z"
       style="fill:#4f80ff"
       id="path249"
       inkscape:connector-curvature="0" />
  </g>
  <g
     id="freepik--Character--inject-2">
    <path
       d="m 248.19,126.91 a 157.65,157.65 0 0 0 0.05,39 c 0.41,3.28 1.11,6.86 3.69,8.91 3.08,2.44 7.91,1.59 10.71,-1.16 2.8,-2.75 3.84,-6.88 3.79,-10.81 -0.05,-3.93 -1.06,-7.76 -1.77,-11.62 -0.94,-5.09 -1.41,-10.37 -3.69,-15 -2.28,-4.63 -7,-8.6 -12.12,-8.08"
       style="fill:#263238"
       id="path252"
       inkscape:connector-curvature="0" />
    <path
       d="m 255.77,88.82 c 5.87,-5.78 18.46,-4.31 25,0.66 6.54,4.97 10,13.16 11.38,21.29 1.38,8.13 1.06,16.45 1.73,24.66 0.67,8.21 2.52,16.68 7.59,23.18 2.17,2.77 4.88,5.12 6.81,8.06 a 18.51,18.51 0 0 1 0.76,19 16.72,16.72 0 0 1 -17,8 c -6.82,-1.29 -12.06,-7.1 -14.67,-13.53 -2.61,-6.43 -3,-13.51 -3.57,-20.43 a 563.47,563.47 0 0 0 -8.68,-64.18"
       style="fill:#263238"
       id="path254"
       inkscape:connector-curvature="0" />
    <path
       d="m 248.59,152.34 6.11,-1.66 h 26.93 l 14.6,8.62 c 0,0 -25.53,11.49 -35,6.88 a 26.57,26.57 0 0 1 -12.65,-13.07"
       style="fill:#c69481"
       id="path256"
       inkscape:connector-curvature="0" />
    <path
       d="M 281.84,103.59 282,100 260.5,95.22 c -6.65,-0.92 -14.07,5.55 -14.7,12.23 -0.7,7.42 -1.26,16.51 -0.55,22.08 1.42,11.22 9.93,12.9 9.93,12.9 l 0.91,24.51 24.68,1.06 z"
       style="fill:#c69481"
       id="path258"
       inkscape:connector-curvature="0" />
    <path
       d="m 249,115.28 a 1.43,1.43 0 0 0 1.33,1.49 1.38,1.38 0 0 0 1.52,-1.25 1.43,1.43 0 0 0 -1.33,-1.48 1.37,1.37 0 0 0 -1.52,1.24 z"
       style="fill:#263238"
       id="path260"
       inkscape:connector-curvature="0" />
    <path
       d="m 248,111.41 c 0.17,0.19 1.28,-0.58 2.82,-0.52 1.54,0.06 2.65,0.85 2.82,0.67 0.17,-0.18 -0.09,-0.42 -0.57,-0.8 a 4,4 0 0 0 -2.24,-0.77 3.89,3.89 0 0 0 -2.26,0.65 c -0.45,0.36 -0.57,0.68 -0.57,0.77 z"
       style="fill:#263238"
       id="path262"
       inkscape:connector-curvature="0" />
    <path
       d="m 264.06,116 a 1.43,1.43 0 0 0 1.33,1.49 1.38,1.38 0 0 0 1.52,-1.25 1.43,1.43 0 0 0 -1.34,-1.48 1.36,1.36 0 0 0 -1.51,1.24 z"
       style="fill:#263238"
       id="path264"
       inkscape:connector-curvature="0" />
    <path
       d="m 263.16,112.21 c 0.17,0.19 1.28,-0.58 2.82,-0.53 1.54,0.05 2.64,0.86 2.82,0.68 0.18,-0.18 -0.09,-0.43 -0.57,-0.8 a 4,4 0 0 0 -2.25,-0.77 3.79,3.79 0 0 0 -2.25,0.65 c -0.48,0.35 -0.65,0.68 -0.57,0.77 z"
       style="fill:#263238"
       id="path266"
       inkscape:connector-curvature="0" />
    <path
       d="m 257.22,124.25 a 10.34,10.34 0 0 0 -2.49,-0.53 c -0.39,0 -0.76,-0.14 -0.82,-0.41 a 2,2 0 0 1 0.3,-1.16 c 0.4,-0.94 0.82,-1.92 1.25,-3 1.75,-4.21 3,-7.68 2.86,-7.75 -0.14,-0.07 -1.73,3.29 -3.47,7.51 l -1.21,3 a 2.33,2.33 0 0 0 -0.25,1.54 1,1 0 0 0 0.63,0.6 3,3 0 0 0 0.66,0.11 10,10 0 0 0 2.54,0.09 z"
       style="fill:#263238"
       id="path268"
       inkscape:connector-curvature="0" />
    <path
       d="m 255.21,142.45 a 29.5,29.5 0 0 0 15.44,-3.53 c 0,0 -3.78,7.72 -15.3,6.34 z"
       style="fill:#936457"
       id="path270"
       inkscape:connector-curvature="0" />
    <path
       d="m 257.75,128 a 2.8,2.8 0 0 1 2.52,-1 2.54,2.54 0 0 1 1.72,1 1.62,1.62 0 0 1 0.07,1.84 1.88,1.88 0 0 1 -2,0.45 5.85,5.85 0 0 1 -1.93,-1.24 1.56,1.56 0 0 1 -0.42,-0.47 0.49,0.49 0 0 1 0,-0.57"
       style="fill:#936457"
       id="path272"
       inkscape:connector-curvature="0" />
    <path
       d="m 261.72,125.46 c -0.25,0 -0.31,1.65 -1.78,2.79 -1.47,1.14 -3.24,0.9 -3.26,1.13 -0.02,0.23 0.39,0.34 1.14,0.38 a 4.14,4.14 0 0 0 2.72,-0.85 3.66,3.66 0 0 0 1.38,-2.34 c 0.08,-0.7 -0.09,-1.12 -0.2,-1.11 z"
       style="fill:#263238"
       id="path274"
       inkscape:connector-curvature="0" />
    <path
       d="m 263,107.56 c 0.14,0.42 1.68,0.27 3.48,0.54 1.8,0.27 3.25,0.82 3.5,0.45 0.11,-0.18 -0.13,-0.58 -0.71,-1 a 5.71,5.71 0 0 0 -2.57,-1 5.83,5.83 0 0 0 -2.74,0.23 c -0.73,0.22 -1.07,0.58 -0.96,0.78 z"
       style="fill:#263238"
       id="path276"
       inkscape:connector-curvature="0" />
    <path
       d="m 248.24,106.13 c 0.26,0.36 1.34,0 2.61,0.05 1.27,0.05 2.35,0.31 2.61,-0.05 0.11,-0.18 0,-0.53 -0.51,-0.88 a 3.77,3.77 0 0 0 -4.2,0 c -0.46,0.35 -0.62,0.75 -0.51,0.88 z"
       style="fill:#263238"
       id="path278"
       inkscape:connector-curvature="0" />
    <path
       d="m 281.51,121.14 c 1.95,-1.29 2.8,-12.42 2.72,-17 C 284.15,99.56 281.7,95.5 278.48,92.26 275,88.76 270.92,87.53 266,87 c -2.76,-0.3 -5.72,-0.66 -8.39,0.1 -2.67,0.76 -4.16,1.7 -5.46,4.15 -0.72,1.36 -0.91,3.3 0.34,4.19 1.25,0.89 2.82,0.17 4.23,-0.23 3.74,-1.07 7.84,0.14 11.07,2.3 3.23,2.16 5.77,5.21 8.26,8.21 3.23,3.91 4.76,10.41 5.48,15.42"
       style="fill:#4f80ff"
       id="path280"
       inkscape:connector-curvature="0" />
    <path
       d="m 243.85,95.12 c 1.43,-4.54 10.27,-10.16 19.63,-6 4.3,0.15 8.48,0.86 13.06,5 8.27,7.55 5.1,26 5.1,26 a 41.91,41.91 0 0 1 -13.19,-10.65 c -5.31,-6.4 -8.22,-11.41 -9.26,-14.45 v 0 c -8.64,2.08 -11.9,9.63 -13.42,12.9 -1.95,-2.14 -4.45,-4.79 -1.92,-12.8 z"
       style="fill:#263238"
       id="path282"
       inkscape:connector-curvature="0" />
    <path
       d="m 279.81,119.06 c 0.18,-0.09 7.36,-2.51 7.43,4.92 0.07,7.43 -7.4,6 -7.41,5.75 -0.01,-0.25 -0.02,-10.67 -0.02,-10.67 z"
       style="fill:#c69481"
       id="path284"
       inkscape:connector-curvature="0" />
    <path
       d="m 282.07,126.89 c 0,0 0.13,0.09 0.35,0.19 a 1.27,1.27 0 0 0 1,0 3.2,3.2 0 0 0 1.45,-2.89 4.35,4.35 0 0 0 -0.38,-1.84 1.5,1.5 0 0 0 -1,-1 0.65,0.65 0 0 0 -0.76,0.36 c -0.1,0.21 -0.05,0.36 -0.09,0.37 -0.04,0.01 -0.16,-0.12 -0.1,-0.43 a 0.84,0.84 0 0 1 0.28,-0.47 1,1 0 0 1 0.72,-0.19 1.8,1.8 0 0 1 1.36,1.14 4.41,4.41 0 0 1 0.47,2.06 c 0,1.5 -0.79,2.91 -1.86,3.23 a 1.35,1.35 0 0 1 -1.18,-0.19 c -0.25,-0.16 -0.33,-0.32 -0.26,-0.34 z"
       style="fill:#936457"
       id="path286"
       inkscape:connector-curvature="0" />
    <path
       d="m 199.85,284.82 -15,1.66 -9.13,5.73 c 0,0 -0.18,1.86 2.42,1.56 l 5.15,-2.17 -4.08,4.46 c 0,0 1,1.79 3.23,0.54 a 12.66,12.66 0 0 0 3.62,-3.14 l 9,-0.63 c 0,0 -6.8,6.54 -5.55,8.24 1.25,1.7 2.06,1.34 3,0.72 0.94,-0.62 1.53,-2.78 3.76,-3.49 2.23,-0.71 5.94,-2.81 9.94,-4.71 3.45,-1.63 6.94,-13.3 6.94,-13.3 l -11.49,-2.24 z"
       style="fill:#c69481"
       id="path288"
       inkscape:connector-curvature="0" />
    <path
       d="m 193.89,288.64 c 0,0.19 -3.78,0.92 -8.51,1.63 h -0.12 l 0.19,-0.1 c -3.3,3.38 -6.07,6 -6.21,5.87 -0.14,-0.13 2.42,-3 5.72,-6.35 l 0.08,-0.09 h 0.11 0.13 c 4.72,-0.72 8.58,-1.15 8.61,-0.96 z"
       style="fill:#936457"
       id="path290"
       inkscape:connector-curvature="0" />
    <polygon
       points="264.45,361.11 270.11,384.3 289.66,379.01 286.87,354.83 "
       style="fill:#c69481"
       id="polygon292" />
    <path
       d="m 289.91,379 3.79,28.18 9.43,21.43 a 2.91,2.91 0 0 1 -1.68,3.91 v 0 a 2.91,2.91 0 0 1 -2.65,-0.34 c -4.93,-3.44 -23,-16.16 -23.19,-18.24 -0.19,-2.41 -6,-29.46 -6,-29.46 z"
       style="fill:#4f80ff"
       id="path294"
       inkscape:connector-curvature="0" />
    <g
       style="opacity:0.6"
       id="g298">
      <path
         d="M 301.45,432.47 275.31,412 l 0.19,1.19 a 4.36,4.36 0 0 0 1.47,2.64 c 2.12,1.82 8.06,6.7 21.75,16.31 a 2.89,2.89 0 0 0 2.73,0.33 z"
         style="fill:#ffffff"
         id="path296"
         inkscape:connector-curvature="0" />
    </g>
    <g
       style="opacity:0.6"
       id="g302">
      <path
         d="m 279.65,402 a 1.76,1.76 0 0 1 0.83,2.2 1.69,1.69 0 0 1 -2.17,0.85 1.85,1.85 0 0 1 -0.87,-2.33 1.75,1.75 0 0 1 2.35,-0.63"
         style="fill:#ffffff"
         id="path300"
         inkscape:connector-curvature="0" />
    </g>
    <path
       d="m 293.09,421.21 a 8.71,8.71 0 0 1 2.12,-2.57 c 1.51,-1.1 3.13,-0.95 3.14,-1.13 0.01,-0.18 -0.38,-0.24 -1.05,-0.22 a 4.42,4.42 0 0 0 -2.45,0.84 4.51,4.51 0 0 0 -1.62,2 c -0.23,0.65 -0.23,1.07 -0.14,1.08 z"
       style="fill:#263238"
       id="path304"
       inkscape:connector-curvature="0" />
    <path
       d="m 295.69,424.66 c 0.15,0.1 0.91,-1 2.29,-1.6 a 23.11,23.11 0 0 1 2.69,-0.79 c 0.06,-0.16 -1.39,-0.54 -3,0.22 -1.61,0.76 -2.14,2.12 -1.98,2.17 z"
       style="fill:#263238"
       id="path306"
       inkscape:connector-curvature="0" />
    <path
       d="m 288.61,417 c 0.15,0.11 1.31,-1.52 3.37,-2.71 2.06,-1.19 4,-1.44 4,-1.63 0,-0.19 -2.13,-0.22 -4.33,1.09 -2.2,1.31 -3.19,3.17 -3.04,3.25 z"
       style="fill:#263238"
       id="path308"
       inkscape:connector-curvature="0" />
    <path
       d="m 286.74,408.51 c 0.1,0.15 1.55,-0.74 3.56,-1.13 2.01,-0.39 3.68,-0.16 3.71,-0.34 0.03,-0.18 -1.68,-0.72 -3.84,-0.27 -2.16,0.45 -3.54,1.62 -3.43,1.74 z"
       style="fill:#263238"
       id="path310"
       inkscape:connector-curvature="0" />
    <path
       d="m 285.41,400.26 c 0.12,0.15 1.53,-1 3.68,-1.27 2.15,-0.27 3.8,0.52 3.87,0.35 0.07,-0.17 -0.33,-0.37 -1,-0.65 a 6.3,6.3 0 0 0 -2.92,-0.32 6.19,6.19 0 0 0 -2.75,1 c -0.65,0.45 -0.93,0.84 -0.88,0.89 z"
       style="fill:#263238"
       id="path312"
       inkscape:connector-curvature="0" />
    <path
       d="m 288.79,397.43 a 2.37,2.37 0 0 0 -0.13,-1.07 7.45,7.45 0 0 0 -1.28,-2.65 3.33,3.33 0 0 0 -1.65,-1.34 1.18,1.18 0 0 0 -1.27,0.46 1.93,1.93 0 0 0 -0.24,1.34 4.11,4.11 0 0 0 4.16,3.2 4.76,4.76 0 0 0 4.24,-3.2 1.63,1.63 0 0 0 -0.13,-1.37 1.16,1.16 0 0 0 -1.29,-0.42 4,4 0 0 0 -1.69,1.26 8.33,8.33 0 0 0 -1.58,2.48 2.5,2.5 0 0 0 -0.27,1 13.28,13.28 0 0 1 2.17,-3.22 3.75,3.75 0 0 1 1.5,-1.05 0.6,0.6 0 0 1 0.7,0.22 1.1,1.1 0 0 1 0,0.9 4.27,4.27 0 0 1 -3.71,2.74 3.57,3.57 0 0 1 -3.57,-2.67 1.38,1.38 0 0 1 0.13,-0.94 0.64,0.64 0 0 1 0.69,-0.27 3.08,3.08 0 0 1 1.43,1.17 11,11 0 0 1 1.79,3.43 z"
       style="fill:#263238"
       id="path314"
       inkscape:connector-curvature="0" />
    <path
       d="m 237.8,240.52 -0.41,6.1 c 0,0 -5.15,9.75 -5.62,18.49 -0.28,5.07 -0.39,12.55 -0.44,17.93 a 22.67,22.67 0 0 0 3.46,12.25 l 10.32,16.55 -1.42,18.69 18.71,37.47 27.69,-7 -3.28,-69.15 -11.14,-36.52 -2.12,-17.33 z"
       style="fill:#263238"
       id="path316"
       inkscape:connector-curvature="0" />
    <path
       d="m 293.58,236.72 0.49,7.95 c 0,0 22.24,-47.36 52.58,-53.2 19.71,-3.8 27.48,17.69 20.56,34.75 -4.16,10.27 -21.44,29.93 -21.46,30.38 -0.55,10.55 -11.29,9 -11.29,9 0,0 -13.46,21.25 -17.46,25.4 -2.74,2.85 -31.65,1.83 -31.65,1.83 l -9.09,-18.79 -3.66,-36 z"
       style="fill:#263238"
       id="path318"
       inkscape:connector-curvature="0" />
    <path
       d="m 255.13,286.37 a 8.83,8.83 0 0 1 -0.52,1.71 c -0.41,1.2 -0.93,2.74 -1.57,4.58 -1.31,3.87 -3,9.25 -4.68,15.27 -1.68,6.02 -2.88,11.53 -3.71,15.53 -0.39,1.91 -0.71,3.51 -1,4.75 a 8.05,8.05 0 0 1 -0.42,1.73 9.66,9.66 0 0 1 0.18,-1.78 c 0.14,-1.13 0.4,-2.77 0.76,-4.79 0.72,-4 1.9,-9.57 3.54,-15.61 1.64,-6.04 3.44,-11.41 4.87,-15.25 0.71,-1.92 1.32,-3.47 1.77,-4.52 a 9.49,9.49 0 0 1 0.78,-1.62 z"
       style="fill:#455a64"
       id="path320"
       inkscape:connector-curvature="0" />
    <path
       d="m 248.23,278.91 a 38.46,38.46 0 0 1 -0.44,4.5 c -0.32,2.78 -0.69,6.61 -0.9,10.86 -0.21,4.25 -0.21,8.11 -0.16,10.9 a 38.26,38.26 0 0 1 0,4.52 4.71,4.71 0 0 1 -0.2,-1.2 c -0.09,-0.78 -0.18,-1.91 -0.26,-3.31 a 106,106 0 0 1 0,-10.94 107.75,107.75 0 0 1 1.08,-10.89 c 0.22,-1.38 0.42,-2.5 0.59,-3.26 a 4.66,4.66 0 0 1 0.29,-1.18 z"
       style="fill:#455a64"
       id="path322"
       inkscape:connector-curvature="0" />
    <path
       d="m 290.09,359.53 a 2.48,2.48 0 0 1 0,-0.34 c 0,-0.26 0,-0.58 -0.08,-1 0,-0.91 -0.14,-2.18 -0.24,-3.8 -0.19,-3.35 -0.45,-8.11 -0.78,-14 -0.6,-11.85 -1.43,-28.15 -2.33,-46.15 -0.29,-4.5 -0.19,-8.94 -1.14,-13 A 36.61,36.61 0 0 0 280.9,270 a 34.65,34.65 0 0 0 -15.24,-13.43 36.86,36.86 0 0 0 -13.45,-3.3 c -1.64,-0.07 -2.92,0 -3.79,0 l -1,0.05 h -0.34 a 26.67,26.67 0 0 1 5.13,-0.3 35.86,35.86 0 0 1 13.63,3.13 35.38,35.38 0 0 1 8.25,5.12 35.91,35.91 0 0 1 7.31,8.42 36.93,36.93 0 0 1 4.68,11.39 c 1,4.21 0.87,8.67 1.16,13.15 0.84,18 1.6,34.3 2.15,46.16 0.24,5.87 0.43,10.64 0.57,14 0,1.62 0.1,2.89 0.13,3.81 0,0.4 0,0.73 0,1 0,0.27 0.02,0.33 0,0.33 z"
       style="fill:#455a64"
       id="path324"
       inkscape:connector-curvature="0" />
    <path
       d="m 277.42,261.13 c -0.13,-0.12 2.52,-3.55 5.92,-7.67 3.4,-4.12 6.28,-7.37 6.42,-7.26 0.14,0.11 -2.51,3.55 -5.92,7.67 -3.41,4.12 -6.28,7.37 -6.42,7.26 z"
       style="fill:#455a64"
       id="path326"
       inkscape:connector-curvature="0" />
    <path
       d="m 321.72,233.07 a 123.24,123.24 0 0 1 8.62,-12.31 31,31 0 0 1 4.12,-4.61 56,56 0 0 1 -3.59,5.07 c -2.25,3.09 -5.29,7.42 -8.35,12.41 -3.06,4.99 -5.94,9.56 -6.47,13.38 a 12.75,12.75 0 0 0 0.58,6.12 3.39,3.39 0 0 1 -0.81,-1.51 10.63,10.63 0 0 1 -0.43,-4.71 19.48,19.48 0 0 1 2.2,-6.6"
       style="fill:#455a64"
       id="path328"
       inkscape:connector-curvature="0" />
    <path
       d="m 337.16,210 c 0.14,0.13 -0.94,1.48 -1.61,3.45 -0.67,1.97 -0.69,3.69 -0.89,3.7 -0.2,0.01 -0.47,-1.81 0.28,-3.91 0.75,-2.1 2.11,-3.34 2.22,-3.24 z"
       style="fill:#455a64"
       id="path330"
       inkscape:connector-curvature="0" />
    <path
       d="m 274.49,310.24 c -0.16,-0.08 1.23,-3.33 3.11,-7.26 1.88,-3.93 3.54,-7.05 3.7,-7 0.16,0.05 -1.23,3.32 -3.11,7.25 -1.88,3.93 -3.54,7.08 -3.7,7.01 z"
       style="fill:#455a64"
       id="path332"
       inkscape:connector-curvature="0" />
    <path
       d="m 258.82,299.49 c 0.17,-0.06 0.88,1.45 1.59,3.38 0.71,1.93 1.14,3.54 1,3.6 -0.14,0.06 -0.88,-1.45 -1.58,-3.38 -0.7,-1.93 -1.18,-3.53 -1.01,-3.6 z"
       style="fill:#455a64"
       id="path334"
       inkscape:connector-curvature="0" />
    <path
       d="m 222.85,173.14 c 1.6,-13.84 10.48,-16.94 10.48,-16.94 l 1.3,81.77 -10.2,42.23 a 9.46,9.46 0 0 1 -12,6.83 l -20.66,-6.28 c 0,0 29.49,-93.75 31.08,-107.61 z"
       style="fill:#4f80ff"
       id="path336"
       inkscape:connector-curvature="0" />
    <path
       d="m 309.07,166 c 0,0 5.11,11.63 5.11,17.75 0,6.12 6.12,45.77 0,54.17 -6.12,8.4 -18.18,8.08 -21.57,7.83 -4.67,-0.39 -26.45,-40.67 -25.56,-41.19 l 12.25,-2.66 c 0,0 8.58,0.53 12.67,4 4.09,3.47 8.09,-0.53 8.09,-0.53 l 8.65,-37.17"
       style="fill:#4f80ff"
       id="path338"
       inkscape:connector-curvature="0" />
    <path
       d="m 292,156.2 c 0,0 14,4.8 17.07,9.8 3.07,5 -14.59,70.42 -14.59,70.42 l -56.68,4.06 c 0,0 -4.47,-0.81 -5.69,-4.87 -1.22,-4.06 1.22,-79.45 1.22,-79.45 l 15.77,-5.58 c 0,0 6.78,7 11.66,8.43 4.88,1.43 31.24,-2.81 31.24,-2.81 z"
       style="fill:#4f80ff"
       id="path340"
       inkscape:connector-curvature="0" />
    <path
       d="m 236.88,174.15 a 2.94,2.94 0 0 1 0.06,0.67 c 0,0.52 0,1.16 0.06,1.93 0,1.68 0,4.11 0,7.11 a 233.32,233.32 0 0 1 -1.74,23.37 c -0.57,4.54 -1.25,8.86 -1.95,12.76 -0.7,3.9 -1.46,7.39 -1.38,10.37 a 14.45,14.45 0 0 0 1.62,6.75 19.53,19.53 0 0 0 1.46,2.13 c 0,0 -0.2,-0.13 -0.51,-0.45 a 9.25,9.25 0 0 1 -1.17,-1.56 14.17,14.17 0 0 1 -1.86,-6.86 c -0.14,-3 0.57,-6.6 1.25,-10.48 0.68,-3.88 1.33,-8.21 1.89,-12.74 1.14,-9.06 1.69,-17.32 1.94,-23.31 0.1,-2.92 0.18,-5.32 0.24,-7.09 0,-0.77 0,-1.41 0.06,-1.93 a 2.09,2.09 0 0 1 0.03,-0.67 z"
       style="fill:#263238"
       id="path342"
       inkscape:connector-curvature="0" />
    <path
       d="m 292,209.16 a 25,25 0 0 0 -2,-2.38 10.07,10.07 0 0 0 -2.69,-1.86 13,13 0 0 0 -3.89,-1 15.86,15.86 0 0 0 -7.29,0.42 6.25,6.25 0 0 0 -1.91,1.08 c -0.37,0.38 -0.59,0.58 -0.63,0.56 -0.04,-0.02 0.12,-0.29 0.45,-0.73 a 5.47,5.47 0 0 1 1.92,-1.34 14.72,14.72 0 0 1 7.55,-0.63 12.86,12.86 0 0 1 4.06,1.13 9.58,9.58 0 0 1 2.76,2.08 8.22,8.22 0 0 1 1.33,1.9 c 0.27,0.46 0.34,0.75 0.34,0.77 z"
       style="fill:#263238"
       id="path344"
       inkscape:connector-curvature="0" />
    <path
       d="m 277.24,221.65 c 0.1,0 0.55,1.53 1.59,3.93 a 73.75,73.75 0 0 0 4.79,9 71.8,71.8 0 0 0 5.93,8.31 19.3,19.3 0 0 0 2.14,2.21 6.17,6.17 0 0 0 0.92,0.63 c 0,0 -0.46,0 -1.08,-0.43 a 14.76,14.76 0 0 1 -2.32,-2.11 60.9,60.9 0 0 1 -10.8,-17.46 30.49,30.49 0 0 1 -1,-3 4.09,4.09 0 0 1 -0.17,-1.08 z"
       style="fill:#263238"
       id="path346"
       inkscape:connector-curvature="0" />
    <path
       d="m 298.84,172.53 c -0.14,-0.09 1.15,-2.13 3.28,-4.2 2.13,-2.07 4.19,-3.32 4.28,-3.18 0.09,0.14 -1.76,1.61 -3.83,3.64 -2.07,2.03 -3.57,3.86 -3.73,3.74 z"
       style="fill:#263238"
       id="path348"
       inkscape:connector-curvature="0" />
    <path
       d="m 231.38,158.33 c 0.09,-0.14 2.38,1.27 4.44,3.82 2.06,2.55 3,5.06 2.84,5.12 -0.16,0.06 -1.33,-2.26 -3.35,-4.71 -2.02,-2.45 -4.04,-4.08 -3.93,-4.23 z"
       style="fill:#263238"
       id="path350"
       inkscape:connector-curvature="0" />
    <path
       d="m 283.91,230.22 a 15.9,15.9 0 0 1 -2,-3.21 46.07,46.07 0 0 1 -5,-17.38 15.09,15.09 0 0 1 0,-3.77 35.41,35.41 0 0 1 0.48,3.72 59.43,59.43 0 0 0 1.79,8.81 60.45,60.45 0 0 0 3.14,8.42 33.25,33.25 0 0 1 1.59,3.41 z"
       style="fill:#263238"
       id="path352"
       inkscape:connector-curvature="0" />
    <path
       d="m 305,213.25 a 20.36,20.36 0 0 1 -2.1,-2 49.94,49.94 0 0 0 -5.32,-4.57 18.3,18.3 0 0 0 -3.22,-2 4.19,4.19 0 0 0 -2.91,-0.31 3.21,3.21 0 0 0 -1.64,1.12 c -0.27,0.4 -0.33,0.68 -0.38,0.67 -0.05,-0.01 -0.06,-0.31 0.17,-0.79 a 3,3 0 0 1 1.7,-1.43 4.48,4.48 0 0 1 3.29,0.19 16.77,16.77 0 0 1 3.37,2.06 34.6,34.6 0 0 1 5.27,4.78 9.74,9.74 0 0 1 1.77,2.28 z"
       style="fill:#263238"
       id="path354"
       inkscape:connector-curvature="0" />
    <g
       style="opacity:0.3"
       id="g358">
      <path
         d="m 278.55,226.21 c -2.93,0.74 -5.9,-1 -8.92,-1.12 -2.74,-0.14 -5.36,1 -8,1.71 a 27.55,27.55 0 0 1 -17.43,-1.05 4.71,4.71 0 0 1 -1.76,-1.09 2.22,2.22 0 0 1 -0.33,-2.2 c 5.09,-0.05 10.17,0.17 15.27,0.12 a 5.83,5.83 0 0 0 3,-0.59 1.29,1.29 0 0 0 0.54,-0.56 c 0,0 3.05,-0.1 4.14,-0.11 2.45,0 5.28,0.19 7.73,0.18 1.07,0 4.51,0.15 4.43,0.15"
         id="path356"
         inkscape:connector-curvature="0" />
    </g>
    <g
       style="opacity:0.3"
       id="g362">
      <path
         d="m 295.33,204.39 a 23.65,23.65 0 0 1 11.67,5.74 3.84,3.84 0 0 1 0.93,1.12 1.4,1.4 0 0 1 0,1.39 1.45,1.45 0 0 1 -1.61,0.46 4.29,4.29 0 0 1 -1.51,-0.95 L 295.09,204"
         id="path360"
         inkscape:connector-curvature="0" />
    </g>
    <path
       d="m 298.05,176.35 a 23.17,23.17 0 0 1 0.09,4.15 c -0.05,2.55 -0.23,6.09 -0.6,10 -0.37,3.91 -0.86,7.4 -1.29,9.92 a 22,22 0 0 1 -0.86,4.05 30.47,30.47 0 0 1 0.41,-4.12 c 0.31,-2.53 0.73,-6 1.1,-9.91 0.37,-3.91 0.61,-7.39 0.78,-9.93 a 30.58,30.58 0 0 1 0.37,-4.16 z"
       style="fill:#263238"
       id="path364"
       inkscape:connector-curvature="0" />
    <polygon
       points="227.57,190.31 226.85,191.5 242.31,221.28 260.94,221.43 253.89,204.37 247.96,191.59 "
       style="fill:#455a64"
       id="polygon366" />
    <path
       d="m 253.17,205.56 -5.93,-12.79 -20.39,-1.28 14.74,31 16.53,0.12 a 3.93,3.93 0 0 0 2.67,-1 l 0.15,-0.14 z"
       style="fill:#455a64"
       id="path368"
       inkscape:connector-curvature="0" />
    <path
       d="m 237.7,197.51 a 1,1 0 1 0 -0.06,-1.45 1,1 0 0 0 0.06,1.45 z"
       style="fill:#ebebeb"
       id="path370"
       inkscape:connector-curvature="0" />
    <path
       d="m 277.06,206.21 -7.88,0.46 a 11.17,11.17 0 0 0 -8.45,-4.71 l -2.81,-0.18 -2.06,2 c 0,0 -13.83,-0.26 -14.44,1.41 v 0.55 0.32 l 11.75,1.53 c 0,0 -10,-0.66 -10.64,-0.68 -0.64,-0.02 -2.79,-0.34 -2.82,0.84 0,1 1.08,1.81 2.8,2.17 0.7,0.15 9.35,1.45 9.35,1.45 l -9.57,-0.69 c -1.07,-0.08 -1,1.65 -0.42,1.91 0.58,0.26 12.53,4.54 12.53,4.54 a 7.4,7.4 0 0 1 -3.82,1 c -1.68,-0.22 -4.43,-2.57 -5.09,-1.58 -0.66,0.99 -0.58,1.59 -0.24,1.85 a 44.44,44.44 0 0 0 5.48,3 c 1.3,0.44 14.66,-0.23 14.66,-0.23 l 13.95,0.48 z"
       style="fill:#c69481"
       id="path372"
       inkscape:connector-curvature="0" />
    <path
       d="m 251.15,203.69 a 41.11,41.11 0 0 1 4.85,0.13 39,39 0 0 1 4.84,0.43 38.67,38.67 0 0 1 -4.85,-0.13 36.85,36.85 0 0 1 -4.84,-0.43 z"
       style="fill:#936457"
       id="path374"
       inkscape:connector-curvature="0" />
    <path
       d="m 252,203.13 c 0,0 -0.14,-0.27 -0.37,-0.76 -0.23,-0.49 -0.59,-1.28 -1,-2.13 -0.86,-1.92 -2,-4.46 -3.32,-7.38 h 0.08 l -4.67,-0.3 -11.27,-0.75 -3.41,-0.25 -0.93,-0.08 h -0.32 0.32 0.93 l 3.42,0.19 11.27,0.69 4.67,0.31 h 0.06 v 0.05 l 3.26,7.41 0.93,2.15 c 0.29,0.57 0.35,0.85 0.35,0.85 z"
       style="fill:#263238"
       id="path376"
       inkscape:connector-curvature="0" />
    <path
       d="m 330.81,271.42 -13.58,17.08 c 0,0 13.72,18.24 11.52,21.64 l -35,-23.85 20.07,-27.48 z"
       style="fill:#4f80ff"
       id="path378"
       inkscape:connector-curvature="0" />
    <g
       style="opacity:0.6"
       id="g382">
      <path
         d="m 307.78,279.25 a 1.72,1.72 0 0 0 -2.13,0.87 1.67,1.67 0 0 0 0.85,2.13 1.83,1.83 0 0 0 2.26,-0.95 1.73,1.73 0 0 0 -1.13,-2.11"
         style="fill:#ffffff"
         id="path380"
         inkscape:connector-curvature="0" />
    </g>
    <g
       style="opacity:0.6"
       id="g386">
      <path
         d="m 293.76,286.29 2,-2.77 33,24.21 a 2.92,2.92 0 0 1 0,2.79 z"
         style="fill:#ffffff"
         id="path384"
         inkscape:connector-curvature="0" />
    </g>
    <path
       d="m 317.91,288.73 c -0.13,0.16 -1,-0.38 -2.23,-0.45 -1.23,-0.07 -2.17,0.31 -2.27,0.13 -0.1,-0.18 0.85,-1 2.32,-0.84 1.47,0.16 2.33,1.03 2.18,1.16 z"
       style="fill:#263238"
       id="path388"
       inkscape:connector-curvature="0" />
    <path
       d="m 320.39,292.84 c -0.08,0.19 -1,-0.06 -2.09,0.23 -1.09,0.29 -1.8,0.91 -2,0.78 -0.2,-0.13 0.43,-1.15 1.78,-1.48 1.35,-0.33 2.42,0.31 2.31,0.47 z"
       style="fill:#263238"
       id="path390"
       inkscape:connector-curvature="0" />
    <path
       d="m 319.26,298.62 c -0.17,-0.08 0.21,-1.08 1.31,-1.68 1.1,-0.6 2.14,-0.38 2.11,-0.19 -0.03,0.19 -0.87,0.32 -1.77,0.83 -0.9,0.51 -1.47,1.14 -1.65,1.04 z"
       style="fill:#263238"
       id="path392"
       inkscape:connector-curvature="0" />
    <path
       d="m 320.57,284.49 c -0.18,0.1 -0.77,-0.69 -1.76,-1.32 -0.99,-0.63 -1.94,-0.87 -1.92,-1.08 0.02,-0.21 1.16,-0.28 2.31,0.48 1.15,0.76 1.55,1.85 1.37,1.92 z"
       style="fill:#263238"
       id="path394"
       inkscape:connector-curvature="0" />
    <path
       d="m 323.25,281 c -0.05,0.07 -0.79,-0.31 -1.7,-1.27 a 9.16,9.16 0 0 1 -1.38,-1.87 9.52,9.52 0 0 1 -0.6,-1.24 2.8,2.8 0 0 1 -0.22,-0.78 0.91,0.91 0 0 1 0.58,-0.94 1.13,1.13 0 0 1 1,0.16 2.34,2.34 0 0 1 0.57,0.56 7.31,7.31 0 0 1 0.79,1.14 7.4,7.4 0 0 1 0.82,2.2 3.52,3.52 0 0 1 0,2.12 c -0.12,0 -0.12,-0.8 -0.48,-2 a 8.22,8.22 0 0 0 -0.89,-2 7.68,7.68 0 0 0 -0.75,-1 c -0.29,-0.36 -0.6,-0.59 -0.81,-0.49 -0.21,0.1 -0.1,0.05 -0.1,0.22 a 2,2 0 0 0 0.16,0.57 9.77,9.77 0 0 0 0.52,1.18 12.94,12.94 0 0 0 1.18,1.85 c 0.77,0.98 1.38,1.5 1.31,1.59 z"
       style="fill:#263238"
       id="path396"
       inkscape:connector-curvature="0" />
    <path
       d="m 322.85,281.08 a 3.5,3.5 0 0 1 0.77,-2 6.85,6.85 0 0 1 1.61,-1.7 7,7 0 0 1 1.2,-0.71 1.75,1.75 0 0 1 1.72,-0.06 1,1 0 0 1 0.37,1 3.09,3.09 0 0 1 -0.29,0.75 4.58,4.58 0 0 1 -0.85,1.15 4.86,4.86 0 0 1 -2,1.23 2.72,2.72 0 0 1 -2.13,0 19,19 0 0 0 2,-0.49 4.77,4.77 0 0 0 1.72,-1.21 4.26,4.26 0 0 0 0.7,-1 c 0.21,-0.41 0.29,-0.8 0.13,-0.86 a 1.19,1.19 0 0 0 -1,0.12 6.12,6.12 0 0 0 -1.1,0.61 7.61,7.61 0 0 0 -1.7,1.49 c -0.76,0.96 -1,1.72 -1.15,1.68 z"
       style="fill:#263238"
       id="path398"
       inkscape:connector-curvature="0" />
    <polygon
       points="314.22,259.11 317.13,254.66 334.46,265.59 330.18,270.95 "
       style="fill:#c69481"
       id="polygon400" />
  </g>
  <g
     id="freepik--Floor--inject-2">
    <path
       d="m 469.26,468.87 c 0,0.14 -97.05,0.26 -216.74,0.26 -119.69,0 -216.77,-0.13 -216.77,-0.26 0,-0.13 97,-0.26 216.77,-0.26 119.77,0 216.74,0.12 216.74,0.26 z"
       style="fill:#263238"
       id="path403"
       inkscape:connector-curvature="0" />
  </g>
  <g
     id="freepik--Plant--inject-2">
    <path
       d="m 116.29,392.49 a 21.57,21.57 0 0 1 13.34,-1.62 c 2.43,0.4 5,1.13 6.6,2.95 1.6,1.82 2,5 0.07,6.58 a 6.31,6.31 0 0 1 -4.16,1.05 c -3.53,0 -7.44,-0.66 -10.26,1.46 -1.61,1.21 -2.68,3.23 -4.61,3.82 a 4.53,4.53 0 0 1 -5,-2.22 7.8,7.8 0 0 1 -0.56,-5.74 8.75,8.75 0 0 1 4.58,-6.28 z"
       style="fill:#4f80ff"
       id="path406"
       inkscape:connector-curvature="0" />
    <path
       d="m 107,374.54 c 2.48,3.54 7.3,2.37 9.54,0.21 2.24,-2.16 3.18,-5.3 4,-8.3 2,-6.83 4,-14 2.49,-21 a 11.64,11.64 0 0 0 -2.68,-5.7 6.09,6.09 0 0 0 -5.76,-1.92 c -2.44,0.65 -4,3 -5,5.29 a 50.11,50.11 0 0 0 -4.94,21.45 c 0,3.45 0.4,7.08 2.35,9.93"
       style="fill:#4f80ff"
       id="path408"
       inkscape:connector-curvature="0" />
    <path
       d="m 100.17,379.63 c 2.69,-3.2 3.21,-7.87 2,-11.88 a 22.92,22.92 0 0 0 -7,-10.2 37.91,37.91 0 0 0 -12.59,-7.43 13.47,13.47 0 0 0 -5.66,-1 6,6 0 0 0 -4.78,2.88 c -1.33,2.52 -0.06,5.59 1.32,8.09 a 96.27,96.27 0 0 0 8.27,12.6 c 2.48,3.19 5.32,6.34 9.09,7.79 3.77,1.45 7.71,1.27 9.71,-1.35"
       style="fill:#4f80ff"
       id="path410"
       inkscape:connector-curvature="0" />
    <path
       d="m 106.82,428 a 8.17,8.17 0 0 0 0.22,-1.61 c 0.12,-1.17 0.26,-2.64 0.43,-4.39 0.17,-1.75 0.48,-4.06 1,-6.45 a 49.33,49.33 0 0 1 2.33,-7.55 28.19,28.19 0 0 1 3.89,-6.88 14.55,14.55 0 0 1 4.91,-4.12 14,14 0 0 1 4.14,-1.29 7.14,7.14 0 0 0 1.61,-0.23 7.42,7.42 0 0 0 -1.64,0 12.48,12.48 0 0 0 -4.31,1.12 14.4,14.4 0 0 0 -5.18,4.12 27.17,27.17 0 0 0 -4,7 46.28,46.28 0 0 0 -2.33,7.73 A 55.1,55.1 0 0 0 107,422 c -0.14,1.87 -0.19,3.38 -0.22,4.43 a 7.07,7.07 0 0 0 0.04,1.57 z"
       style="fill:#263238"
       id="path412"
       inkscape:connector-curvature="0" />
    <path
       d="m 107.12,424.64 a 3.13,3.13 0 0 0 0,-0.75 v -2.14 c 0,-1.85 0,-4.54 0.09,-7.85 0.17,-6.63 0.74,-13.77 1.84,-23.83 1,-9.46 2.45,-20.47 3.93,-27.63 0.31,-1.62 0.63,-3.09 0.93,-4.37 0.3,-1.28 0.54,-2.4 0.77,-3.29 0.23,-0.89 0.37,-1.53 0.5,-2.08 a 3.1,3.1 0 0 0 0.13,-0.74 3.75,3.75 0 0 0 -0.26,0.7 c -0.16,0.54 -0.37,1.22 -0.62,2 -0.25,0.78 -0.56,2 -0.88,3.27 -0.32,1.27 -0.69,2.74 -1,4.37 a 239.75,239.75 0 0 0 -4.12,25.7 c -1.1,10.08 -1.6,19.26 -1.65,25.91 0,3.32 0,6 0.12,7.87 0,0.87 0.1,1.58 0.13,2.14 a 3.58,3.58 0 0 0 0.09,0.72 z"
       style="fill:#263238"
       id="path414"
       inkscape:connector-curvature="0" />
    <path
       d="m 107.17,406.94 a 16.71,16.71 0 0 0 0,-2.24 c -0.08,-1.43 -0.28,-3.51 -0.68,-6.05 a 80.47,80.47 0 0 0 -2,-8.81 72.49,72.49 0 0 0 -3.69,-10.43 55.58,55.58 0 0 0 -10.8,-16.86 29.41,29.41 0 0 0 -2.55,-2.37 c -0.39,-0.33 -0.74,-0.66 -1.09,-0.92 l -1,-0.68 a 13.8,13.8 0 0 0 -1.88,-1.2 63.18,63.18 0 0 1 6.17,5.5 58.52,58.52 0 0 1 10.55,16.79 82.91,82.91 0 0 1 3.71,10.33 86.48,86.48 0 0 1 2.09,8.72 c 0.46,2.52 0.73,4.57 0.89,6 a 13,13 0 0 0 0.28,2.22 z"
       style="fill:#263238"
       id="path416"
       inkscape:connector-curvature="0" />
    <polygon
       points="123.05,462.47 124.83,438.17 90.05,438.17 91.83,462.47 "
       style="fill:#263238"
       id="polygon418" />
    <rect
       x="87.040001"
       y="428.59"
       width="41.509998"
       height="9.5799999"
       style="fill:#263238"
       id="rect420" />
    <polygon
       points="88.99,464.2 127.86,464.2 127.86,461.54 87.04,461.54 87.04,464.2 "
       style="fill:#455a64"
       id="polygon422" />
    <polygon
       points="126.38,464.2 124.15,468.87 90.9,468.87 88.99,464.2 "
       style="fill:#455a64"
       id="polygon424" />
    <path
       d="m 124.24,446.11 c 0,0 0,0.08 -0.14,0.22 -0.14,0.14 -0.28,0.37 -0.47,0.62 l -1.82,2.33 -0.08,0.1 -0.08,-0.1 -4.46,-6.19 h 0.25 l -4.4,6.23 -0.13,0.2 -0.16,-0.18 c -1.62,-1.94 -3.39,-4 -5.22,-6.21 h 0.3 l -0.28,0.36 -4.67,5.85 -0.15,0.2 -0.15,-0.2 C 101,447.09 99.52,445 98.18,443.11 h 0.26 l -5.44,6.18 -0.1,0.11 -0.07,-0.13 -1.7,-2.85 -0.44,-0.76 a 1.13,1.13 0 0 1 -0.13,-0.27 1.47,1.47 0 0 1 0.18,0.24 c 0.13,0.19 0.29,0.43 0.48,0.73 l 1.79,2.8 h -0.17 l 5.33,-6.25 0.13,-0.16 0.13,0.17 4.44,6.2 h -0.3 l 4.65,-5.86 0.29,-0.36 0.15,-0.18 0.15,0.18 c 1.83,2.18 3.59,4.28 5.2,6.22 h -0.29 c 1.61,-2.24 3.1,-4.33 4.45,-6.2 l 0.13,-0.18 0.12,0.18 4.38,6.25 h -0.16 l 1.89,-2.26 0.51,-0.59 a 1,1 0 0 1 0.2,-0.21 z"
       style="fill:#e0e0e0"
       id="path426"
       inkscape:connector-curvature="0" />
    <path
       d="m 125.26,438 c 0,0.1 -7.82,0.19 -17.47,0.19 -9.65,0 -17.48,-0.09 -17.48,-0.19 0,-0.1 7.82,-0.2 17.48,-0.2 9.66,0 17.47,0.1 17.47,0.2 z"
       style="fill:#455a64"
       id="path428"
       inkscape:connector-curvature="0" />
    <path
       d="m 126.84,464.46 c 0,0.11 -8.51,0.19 -19,0.19 -10.49,0 -19,-0.08 -19,-0.19 0,-0.11 8.5,-0.2 19,-0.2 10.5,0 19,0.09 19,0.2 z"
       style="fill:#263238"
       id="path430"
       inkscape:connector-curvature="0" />
  </g>
</svg>
